<svg xmlns="http://www.w3.org/2000/svg" viewBox="0 0 413 425.16"><defs><style>.cls-1{fill:#fff;}.cls-2{fill:#bf2121;}</style></defs><g id="Layer_2" data-name="Layer 2"><g id="Layer_1-2" data-name="Layer 1"><path class="cls-1" d="M116.22,410.16a15.2,15.2,0,0,1-1.65-.09,15,15,0,0,1-10.83-6.59L17.52,274.21a15,15,0,0,1,7-22.29l27.25-10.66a212.05,212.05,0,0,0,37.38-28.81c4.69-4.54,9.22-9.35,13.5-14.34A668.74,668.74,0,0,1,143.82,49.67a15,15,0,0,1,10.41-8.94,560.82,560.82,0,0,1,57.83-10.64,567.46,567.46,0,0,1,64.83-4.68h.22a15,15,0,0,1,13.65,8.77l42.82,93.72a15,15,0,0,1-2.08,15.78A87.34,87.34,0,0,1,285,173.22a14.74,14.74,0,0,1-3.66.46,15,15,0,0,1-6.34-1.41c6.31,13.39,12.36,27.65,18,42.47l18.77,32.92L364,255.73a15,15,0,0,1,6,27.3,315.08,315.08,0,0,1-120.51,48.84,314.19,314.19,0,0,1-39.38,4.43l-48.35,36L126.58,406A15,15,0,0,1,116.22,410.16Z"/><path class="cls-2" d="M277.11,40.41q21.42,46.86,42.82,93.72a72.36,72.36,0,0,1-38.56,24.55,82.85,82.85,0,0,1-13.67-11.42,84.14,84.14,0,0,1-11.33-14.66,111.49,111.49,0,0,1-6.9-19.61,110.06,110.06,0,0,1-3.17-21.51,83.66,83.66,0,0,1-7.6,18.33,82.09,82.09,0,0,1-15.71,20,36.72,36.72,0,0,1,11.91,7,38.54,38.54,0,0,1,7.43,8.93c14.1,22.49,17.19,28.92,17.19,28.92,8.31,17.27,15,33.59,20,46.58q11.46,20.1,22.93,40.2l59.31,9.18a301,301,0,0,1-114.8,46.55,299,299,0,0,1-42,4.41l-52.8,39.35-35.88,34.3L30,265.89l28.45-11.13A227,227,0,0,0,99.6,223.23a223.87,223.87,0,0,0,17.25-18.69,659.9,659.9,0,0,1,18.5-84.65,649.06,649.06,0,0,1,22.37-64.57A544.09,544.09,0,0,1,214,45a551.91,551.91,0,0,1,63.11-4.55m0-30h-.44A576.24,576.24,0,0,0,150.74,26.15,30,30,0,0,0,129.93,44a681.28,681.28,0,0,0-23.41,67.55,692.42,692.42,0,0,0-18,79.9c-3.15,3.53-6.43,6.94-9.8,10.2a197,197,0,0,1-33.64,26.1l-11.8,4.62L19.07,238A30,30,0,0,0,5,282.54L91.26,411.81A30,30,0,0,0,112.93,425a30.36,30.36,0,0,0,3.29.18A30,30,0,0,0,137,416.85l17.94-17.15,16.61-15.88,44-32.8a327.92,327.92,0,0,0,36.65-4.38A329.9,329.9,0,0,0,378.37,295.5a30,30,0,0,0-12.07-54.59l-45-7-1.76-3.07L306.66,208.3c-3-7.86-6.16-15.58-9.38-23.09A104.26,104.26,0,0,0,308,180.79a102.81,102.81,0,0,0,35-27.57,30,30,0,0,0,4.15-31.55L319.47,60.93,304.4,28a30,30,0,0,0-27.29-17.54Z"/><path class="cls-1" d="M336,103.69a15.72,15.72,0,0,1-2.06-.14l-28.26-3.92A15,15,0,0,1,294,90.86l-20.93-47.1A15,15,0,0,1,284.7,22.82l54.78-7.67a14.66,14.66,0,0,1,2.08-.15,15,15,0,0,1,10,3.82A79,79,0,0,1,365.7,35.48a81.69,81.69,0,0,1,12.16,49.19,15,15,0,0,1-12.23,13.78l-26.93,5A14.67,14.67,0,0,1,336,103.69Z"/><path class="cls-2" d="M341.56,30A64.19,64.19,0,0,1,353,43.5c10.37,16.39,10.33,33.08,9.86,40.2l-26.92,5-28.26-3.92-20.93-47.1L341.56,30m0-30a30.73,30.73,0,0,0-4.16.29L282.62,8a30,30,0,0,0-23.26,41.9L280.29,97a30,30,0,0,0,23.29,17.53l14.13,2,14.13,2a30.06,30.06,0,0,0,4.13.28,30.5,30.5,0,0,0,5.47-.5l26.92-5a30,30,0,0,0,24.47-27.54c.95-14.63-.78-36.6-14.45-58.19A94.06,94.06,0,0,0,361.56,7.64a30,30,0,0,0-20-7.64Z"/><path class="cls-1" d="M287.48,178.89a15,15,0,0,1-4.13-29.42A63,63,0,0,0,304,139.2a62,62,0,0,0,8.81-8.09L300.6,105.67a15,15,0,0,1,9.79-21l21.3-5.48a15.21,15.21,0,0,1,3.74-.47q.7,0,1.41.06l31,2.94a15,15,0,0,1,12.64,9.67l9.81,26.18a15,15,0,0,1,.49,8.93l-7.66,30.34A15,15,0,0,1,370.57,168l-81.11,10.73A14.63,14.63,0,0,1,287.48,178.89Z"/><path class="cls-2" d="M335.43,93.72l31,2.93,9.81,26.18-7.66,30.33L287.5,163.89A77.73,77.73,0,0,0,330.31,133L314.13,99.2l21.3-5.48m0-30a30,30,0,0,0-7.48.94l-21.3,5.48a30,30,0,0,0-19.58,42l7.38,15.43a48,48,0,0,1-15.25,7.48,30,30,0,0,0,8.27,58.83,31.22,31.22,0,0,0,4-.26l81.11-10.73a30,30,0,0,0,25.15-22.39l7.67-30.33a30,30,0,0,0-1-17.87l-9.8-26.18a30,30,0,0,0-25.28-19.35l-31-2.93c-.94-.09-1.88-.13-2.82-.13Z"/><path class="cls-1" d="M355.15,227.34l-.67,0-72.2-3.24a15,15,0,0,1-12.83-8.45l-16.73-34.58a15,15,0,0,1,11.45-21.39l60.22-8.33c.4-.05.8-.09,1.21-.12l44.19-2.49.85,0a15,15,0,0,1,13,7.51L396,177.61a15,15,0,0,1,1.35,11.89l-7,22.76a15,15,0,0,1-11.21,10.28L358.29,227A14.38,14.38,0,0,1,355.15,227.34Z"/><path class="cls-2" d="M370.64,163.69l6,10.46,6.33,11q-3.48,11.38-7,22.76l-20.88,4.47L283,209.1q-8.37-17.29-16.73-34.58l60.22-8.33,44.2-2.5m0-30c-.57,0-1.13,0-1.7.05l-44.2,2.5c-.81,0-1.61.12-2.42.23l-30.11,4.17-30.11,4.16a30,30,0,0,0-22.89,42.78l10,20.66,6.73,13.92a30,30,0,0,0,25.66,16.91l72.21,3.24,1.34,0a30.11,30.11,0,0,0,6.28-.67l20.88-4.47a30,30,0,0,0,22.41-20.56l3.48-11.37,3.48-11.38a30,30,0,0,0-2.7-23.77l-3.16-5.48-3.16-5.48-1.8-3.11-4.24-7.35a30,30,0,0,0-26-15Z"/><path class="cls-1" d="M365.33,278.58a14.64,14.64,0,0,1-2.79-.26l-57.48-10.87a15,15,0,0,1-10.18-7.2l-19.64-33.81a15,15,0,0,1,12.07-22.51l36.39-2.17c.3,0,.59,0,.89,0a15.76,15.76,0,0,1,1.68.09l52.16,5.88a15,15,0,0,1,13.32,15.17l-.56,32.35a15,15,0,0,1-5.67,11.48l-10.86,8.63A15,15,0,0,1,365.33,278.58Z"/><path class="cls-2" d="M324.59,216.73l52.16,5.88q-.28,16.17-.56,32.35l-10.86,8.62-57.48-10.87q-9.83-16.9-19.64-33.81l36.38-2.17m0-30c-.59,0-1.19,0-1.78.05l-18.2,1.09L286.42,189a30,30,0,0,0-24.15,45l9.82,16.91,9.82,16.9a30,30,0,0,0,20.36,14.41l31.23,5.9,26.25,5a30,30,0,0,0,24.24-6l5.43-4.31,5.43-4.32a30,30,0,0,0,11.33-23l.29-16.18.28-16.17a30,30,0,0,0-26.64-30.33L328,186.92a29,29,0,0,0-3.36-.19Z"/></g></g></svg>