<?xml version="1.0" encoding="UTF-8"?>
<svg id="Layer_2" data-name="Layer 2" xmlns="http://www.w3.org/2000/svg" viewBox="0 0 614.27 1074.77">
  <defs>
    <style>
      .cls-1 {
        fill: #faa307;
      }

      .cls-2 {
        fill: #ffba08;
      }

      .cls-3 {
        fill: orange;
      }

      .cls-4 {
        fill: #e85d04;
      }

      .cls-5 {
        fill: #dc2f02;
      }

      .cls-5, .cls-6 {
        stroke: #000;
        stroke-miterlimit: 10;
      }

      .cls-6 {
        fill: #9d0208;
      }
    </style>
  </defs>
  <g id="Layer_1-2" data-name="Layer 1">
    <g>
      <path class="cls-6" d="m280.81,464.97c-2.3-105,23.8-144,50-159.3,39.7-23.2,84.6,5.1,179.7-13.4,33.2-6.5,59.7-16.1,77.2-23.5,10.3-28.5,26.9-87.5,13.4-159.6-7.8-42-23.3-74.6-36.1-96.4,1.6,19.5,1.8,47.4-5.9,79.6-10.1,42.3-29,72.9-42,90.7-12.7-10.2-28.9-25.5-43.7-47.1-20.5-29.8-29.4-58.6-33.6-77.2.6,13.7.5,51.3-25.2,84-8.3,10.5-17.3,18.1-25.2,23.6-11.7-4.7-23.7-11.2-35.3-20.2C293.91,99.37,290.61,18.87,290.31.07c-13.5,90-31.1,163-45.3,215-36,131.1-118.4,373.1-159.5,429.8-3.2,4.4-14.3,19.1-16.8,40.3-3.1,26.4,8,46.1,11.8,52.1,72-104.2,205.6-128.1,288.8-70.5,79.4,54.9,107.6,180.2,53.7,253.6-44,60-142.9,85.7-186.4,50.4-21-17.1-25.8-45.7-30.2-72.2-7.7-46.1,4.7-68.3,9.5-129.1,1.7-21.8,2.9-54.9-1.2-96.4-4.3,26.7-14.6,63.6-41.9,96.2-25.7,30.7-49.6,37.4-87.3,67.2-23.6,18.6-54.8,47.9-84.9,93.8,100.2,131.7,272.3,178.4,410.6,117.8,159.4-69.9,252.4-273,174.6-424.8-51.9-102.1-172.3-164.1-305-158.3Z"/>
      <path class="cls-5" d="m280.81,464.97c-2.3-105,23.8-144,50-159.3,39.7-23.2,84.6,5.1,179.7-13.4,33.2-6.5,59.7-16.1,77.2-23.5,10.3-28.5,26.9-87.5,13.4-159.6-7.8-42-23.3-74.6-36.1-96.4,1.6,19.5,1.8,47.4-5.9,79.6-10.1,42.3-29,72.9-42,90.7-12.7-10.2-28.9-25.5-43.7-47.1-20.5-29.8-29.4-58.6-33.6-77.2.6,13.7.5,51.3-25.2,84-8.3,10.5-17.3,18.1-25.2,23.6-11.7-4.7-23.7-11.2-35.3-20.2C293.91,99.37,290.61,18.87,290.31.07c-13.5,90-31.1,163-45.3,215-36,131.1-118.4,373.1-159.5,429.8-3.2,4.4-14.3,19.1-16.8,40.3-3.1,26.4,8,46.1,11.8,52.1,72-104.2,205.6-128.1,288.8-70.5,79.4,54.9,107.6,180.2,53.7,253.6-44,60-142.9,85.7-186.4,50.4-21-17.1-25.8-45.7-30.2-72.2-7.7-46.1,4.7-68.3,9.5-129.1,1.7-21.8,2.9-54.9-1.2-96.4-4.3,26.7-14.6,63.6-41.9,96.2-25.7,30.7-49.6,37.4-87.3,67.2-23.6,18.6-54.8,47.9-84.9,93.8,100.2,131.7,272.3,178.4,410.6,117.8,159.4-69.9,252.4-273,174.6-424.8-51.9-102.1-172.3-164.1-305-158.3Z"/>
      <path class="cls-4" d="m284.61,1055.87c-99.3,0-196-47.1-261.3-126.6,21.5-30.6,46.2-57,73.6-78.6,13.7-10.8,25.4-18.4,36.6-25.6,18.4-11.9,35.7-23.1,53.4-44.2,3.9-4.7,7.6-9.6,11.1-14.7,0,.6-.1,1.1-.1,1.7-1.7,21.6-4.4,38.3-6.8,53-4.2,26-7.9,48.4-2.5,80.6,10.3,61.9,25,73.8,36.7,83.3,16.2,13.2,38.6,20.1,64.7,20.1s54.4-6.9,80.5-19.5c27.8-13.4,51.1-32.2,67.3-54.4,13.8-18.8,23.2-40.9,27.9-65.7,4.4-23.1,4.5-47.5.3-72.3-9.7-57.9-42-110.7-86.3-141.3-32-22.1-71-33.8-112.8-33.8-37.4,0-75.2,9.5-109.6,27.4-26.4,13.8-50.3,32.4-70.6,54.9-.4-4-.4-8.3.2-12.8,1.9-15.9,10-27.1,13.1-31.3l.3-.5c45.1-62.1,129.6-316.7,162.3-435.7,11.3-40.9,21.2-82.8,29.7-125.1,10.6,23.6,26.6,47,50.7,65.8,11.9,9.3,25.3,16.9,39.7,22.7,2.2.9,4.5,1.3,6.8,1.3,3.6,0,7.2-1.1,10.3-3.2,11.2-7.7,21-16.9,29.2-27.3,7.2-9.2,12.7-18.7,16.9-28.1,3.8,7,8,13.8,12.6,20.4,13.2,19.2,29.1,36.3,47.3,50.9,3.3,2.6,7.3,4,11.4,4,.8,0,1.6-.1,2.4-.2,4.9-.6,9.4-3.3,12.3-7.3,21.5-29.4,36.6-62.1,45-97.3.5-2,.9-4,1.3-6,2,7.2,3.6,14.5,5,21.9,10.8,58,1.2,108.4-10.1,142.5-21.5,8.5-43.7,15-66.2,19.4-22,4.3-43.4,6.4-65.6,6.4-14.5,0-27.8-.9-39.5-1.7-10.1-.7-19.7-1.3-28.8-1.3-14.3,0-33.1,1.4-51.5,12.2-19.1,11.2-33.7,29.8-43.5,55.2-11.4,29.7-16.6,70.1-15.5,120.2.1,4.9,2.2,9.5,5.8,12.9,3.4,3.2,7.8,4.9,12.4,4.9h.8c5.5-.2,11-.4,16.5-.4,58.8,0,115.5,14,163.7,40.4,47.9,26.3,85.3,63.6,108,108.1,31.5,61.5,34.4,135.9,8.3,209.3-30.2,84.8-95.3,156.1-174,190.6-37.3,16.5-77.5,24.8-119.4,24.8h0Z"/>
      <path class="cls-4" d="m284.61,1055.87c-99.3,0-196-47.1-261.3-126.6,21.5-30.6,46.2-57,73.6-78.6,13.7-10.8,25.4-18.4,36.6-25.6,18.4-11.9,35.7-23.1,53.4-44.2,3.9-4.7,7.6-9.6,11.1-14.7,0,.6-.1,1.1-.1,1.7-1.7,21.6-4.4,38.3-6.8,53-4.2,26-7.9,48.4-2.5,80.6,10.3,61.9,25,73.8,36.7,83.3,16.2,13.2,38.6,20.1,64.7,20.1s54.4-6.9,80.5-19.5c27.8-13.4,51.1-32.2,67.3-54.4,13.8-18.8,23.2-40.9,27.9-65.7,4.4-23.1,4.5-47.5.3-72.3-9.7-57.9-42-110.7-86.3-141.3-32-22.1-71-33.8-112.8-33.8-37.4,0-75.2,9.5-109.6,27.4-26.4,13.8-50.3,32.4-70.6,54.9-.4-4-.4-8.3.2-12.8,1.9-15.9,10-27.1,13.1-31.3l.3-.5c45.1-62.1,129.6-316.7,162.3-435.7,11.3-40.9,21.2-82.8,29.7-125.1,10.6,23.6,26.6,47,50.7,65.8,11.9,9.3,25.3,16.9,39.7,22.7,2.2.9,4.5,1.3,6.8,1.3,3.6,0,7.2-1.1,10.3-3.2,11.2-7.7,21-16.9,29.2-27.3,7.2-9.2,12.7-18.7,16.9-28.1,3.8,7,8,13.8,12.6,20.4,13.2,19.2,29.1,36.3,47.3,50.9,3.3,2.6,7.3,4,11.4,4,.8,0,1.6-.1,2.4-.2,4.9-.6,9.4-3.3,12.3-7.3,21.5-29.4,36.6-62.1,45-97.3.5-2,.9-4,1.3-6,2,7.2,3.6,14.5,5,21.9,10.8,58,1.2,108.4-10.1,142.5-21.5,8.5-43.7,15-66.2,19.4-22,4.3-43.4,6.4-65.6,6.4-14.5,0-27.8-.9-39.5-1.7-10.1-.7-19.7-1.3-28.8-1.3-14.3,0-33.1,1.4-51.5,12.2-19.1,11.2-33.7,29.8-43.5,55.2-11.4,29.7-16.6,70.1-15.5,120.2.1,4.9,2.2,9.5,5.8,12.9,3.4,3.2,7.8,4.9,12.4,4.9h.8c5.5-.2,11-.4,16.5-.4,58.8,0,115.5,14,163.7,40.4,47.9,26.3,85.3,63.6,108,108.1,31.5,61.5,34.4,135.9,8.3,209.3-30.2,84.8-95.3,156.1-174,190.6-37.3,16.5-77.5,24.8-119.4,24.8h0Z"/>
      <path class="cls-4" d="m282.41,1055.87c-99.3,0-196-47.1-261.3-126.6,21.5-30.6,46.2-57,73.6-78.6,13.7-10.8,25.4-18.4,36.6-25.6,18.4-11.9,35.7-23.1,53.4-44.2,3.9-4.7,7.6-9.6,11.1-14.7,0,.6-.1,1.1-.1,1.7-1.7,21.6-4.4,38.3-6.8,53-4.2,26-7.9,48.4-2.5,80.6,10.3,61.9,25,73.8,36.7,83.3,16.2,13.2,38.6,20.1,64.7,20.1s54.4-6.9,80.5-19.5c27.8-13.4,51.1-32.2,67.3-54.4,13.8-18.8,23.2-40.9,27.9-65.7,4.4-23.1,4.5-47.5.3-72.3-9.7-57.9-42-110.7-86.3-141.3-32-22.1-71-33.8-112.8-33.8-37.4,0-75.2,9.5-109.6,27.4-26.4,13.8-50.3,32.4-70.6,54.9-.4-4-.4-8.3.2-12.8,1.9-15.9,10-27.1,13.1-31.3l.3-.5c45.1-62.1,129.6-316.7,162.3-435.7,11.3-40.9,21.2-82.8,29.7-125.1,10.6,23.6,26.6,47,50.7,65.8,11.9,9.3,25.3,16.9,39.7,22.7,2.2.9,4.5,1.3,6.8,1.3,3.6,0,7.2-1.1,10.3-3.2,11.2-7.7,21-16.9,29.2-27.3,7.2-9.2,12.7-18.7,16.9-28.1,3.8,7,8,13.8,12.6,20.4,13.2,19.2,29.1,36.3,47.3,50.9,3.3,2.6,7.3,4,11.4,4,.8,0,1.6-.1,2.4-.2,4.9-.6,9.4-3.3,12.3-7.3,21.5-29.4,36.6-62.1,45-97.3.5-2,.9-4,1.3-6,2,7.2,3.6,14.5,5,21.9,10.8,58,1.2,108.4-10.1,142.5-21.5,8.5-43.7,15-66.2,19.4-22,4.3-43.4,6.4-65.6,6.4-14.5,0-27.8-.9-39.5-1.7-10.1-.7-19.7-1.3-28.8-1.3-14.3,0-33.1,1.4-51.5,12.2-19.1,11.2-33.7,29.8-43.5,55.2-11.4,29.7-16.6,70.1-15.5,120.2.1,4.9,2.2,9.5,5.8,12.9,3.4,3.2,7.8,4.9,12.4,4.9h.8c5.5-.2,11-.4,16.5-.4,58.8,0,115.5,14,163.7,40.4,47.9,26.3,85.3,63.6,108,108.1,31.5,61.5,34.4,135.9,8.3,209.3-30.2,84.8-95.3,156.1-174,190.6-37.3,16.5-77.5,24.8-119.4,24.8h0Z"/>
      <path class="cls-1" d="m243.81,1025.87c-31.8-4.3-63.4-13.8-92.9-28.1-35.2-17.1-67.6-41.1-94.7-70,16.8-21.3,35.4-40,55.4-55.8,12.7-10,23.3-16.9,34.6-24.1,4-2.6,8.1-5.2,12.2-8-2.5,19.5-3.3,40,1,66,11.1,66.6,28.3,85.3,46.4,100,10.9,8.9,23.7,15.6,38,20Zm129.7-12.8c2.2-1,4.5-2,6.7-3.1,31.8-15.4,58.6-37.1,77.5-62.8,16.2-22.1,27.2-48,32.7-76.7,5-26.3,5.1-53.9.4-81.9-10.9-65-47.4-124.5-97.7-159.3-36.6-25.3-80.9-38.6-128.3-38.6-38.9,0-78.3,9.2-114.4,26.6,27.9-59.7,60-148,86.9-229-3.4,23-4.8,49.1-4.1,77.9.3,12.2,5.5,23.9,14.4,32.2,8.5,7.9,19.5,12.3,31.1,12.3h2c5.1-.2,10.2-.3,15.2-.3,54.3,0,106.3,12.8,150.6,37.1,43.1,23.6,76.6,57,96.9,96.5,28,54.8,30.5,121.4,6.9,187.7-27.7,77.9-87.3,143.2-159.3,174.7-5.8,2.3-11.6,4.6-17.5,6.7Zm-111.5-702.1c10.3-33.2,18.9-62.4,24.8-83.9,5.8-21,11.2-42.4,16.3-64,6.5,6.9,13.5,13.2,21,19,13.9,10.8,29.5,19.7,46.2,26.5,5.4,2.2,11.1,3.3,17,3.3,9.3,0,18.2-2.8,25.8-8,11.6-8,22-17.3,31-27.9,12.4,15.7,26.5,30,42.2,42.6,8.1,6.5,18.2,10.1,28.6,10.1,2,0,4-.1,5.9-.4,12.3-1.6,23.5-8.3,30.8-18.3,1.1-1.5,2.2-3.1,3.3-4.6-1.7,10.5-3.9,20.1-6.3,28.8-16.1,5.7-32.6,10.2-49.2,13.4-20.2,3.9-40,5.9-60.4,5.9-13.6,0-26.4-.8-37.6-1.6-10.6-.7-20.6-1.4-30.6-1.4-16.4,0-40.9,1.7-65.3,15.9-17.6,10.4-32.2,25.3-43.5,44.6Z"/>
      <path class="cls-2" d="m165.91,983.67c-1.6-.8-3.2-1.5-4.9-2.3-28.5-13.8-55-32.4-78.1-54.7,13.1-15.1,27.2-28.6,42.2-40.4,5.4-4.3,10.4-7.9,15.3-11.3.2,10.4,1.2,21.6,3.2,33.9,5.8,34.4,13.1,57.6,22.3,74.8Zm343.4-104.3c.4-1.8.8-3.7,1.1-5.5,5.4-28.4,5.6-58.2.5-88.4-11.7-69.7-51.1-133.8-105.3-171.2-39.6-27.4-87.6-41.9-138.7-41.9-26.9,0-53.9,4.1-80,11.9,11.1-26.5,23.1-57.5,36-92.8,3.4,7.5,8.3,14.4,14.4,20.1,11.9,11.1,27.3,17.2,43.6,17.2.9,0,1.9,0,2.9-.1,4.8-.2,9.6-.3,14.4-.3,51.2,0,100.3,12,141.8,34.8,39.9,21.9,70.8,52.6,89.4,88.9,25.7,50.2,27.8,111.8,5.9,173.2-6.8,19-15.6,37.1-26,54.1ZM301.91,248.87c1.7-5.8,3.2-11.5,4.7-16.9,3.2-11.5,6.2-23.2,9.2-34.9,15.1,11.6,31.9,21.2,50,28.5,7.6,3,15.6,4.6,23.7,4.6,13,0,25.5-3.9,36.1-11.2,7-4.8,13.6-10.1,19.8-15.8,9.8,10.7,20.3,20.6,31.7,29.7.1.1.2.2.3.2-12,1.5-23.9,2.2-36.1,2.2-13,0-25.5-.8-36.4-1.6-10.4-.7-21.2-1.4-31.8-1.4-17.7,0-44.1,1.8-71.2,16.6Z"/>
      <path class="cls-3" d="m528.01,516.27h0c-.4-.2-.5-.6-.3-.9l18.9-36.9c.6-1.1,2-1.6,3.1-1h0c.3.2.5.6.3.9l-18.9,36.9c-.6,1.1-2,1.6-3.1,1Z"/>
      <path class="cls-3" d="m533.11,89.67h0c-.7-.1-1.3-.7-1.2-1.4l5.5-71.3c.2-2.5,2.4-4.4,4.9-4.2h0c.7.1,1.3.7,1.2,1.4l-5.5,71.3c-.2,2.5-2.4,4.4-4.9,4.2Z"/>
      <path class="cls-3" d="m173.01,330.67l.4-.1c.2-.1.3-.3.3-.5l-10.6-39.9c-.2-.8-1-1.2-1.7-1l-.4.1c-.2.1-.3.3-.3.5l10.6,39.9c.1.7.9,1.2,1.7,1Z"/>
      <path class="cls-3" d="m167.21,752.67h0c-.3,0-.6-.2-.6-.6l-2.6-74c0-1.2.9-2.1,2-2.2h0c.3,0,.6.2.6.6l2.6,74c.1,1.2-.8,2.1-2,2.2Z"/>
      <path class="cls-3" d="m328.21,456.87h0c-1.1-.1-1.8-1.1-1.7-2.1l6.5-57.4c.1-1.1,1.1-1.8,2.1-1.7h0c1.1.1,1.8,1.1,1.7,2.1l-6.5,57.4c-.1,1-1,1.8-2.1,1.7Z"/>
      <path class="cls-3" d="m383.41,136.07h0c.1,0,.2-.1.2-.2l-12.3-56.4c0-.1-.1-.2-.2-.2h0c-.1,0-.2.1-.2.2l12.3,56.4c-.1.1.1.2.2.2Z"/>
    </g>
  </g>
</svg>