<?xml version="1.0" encoding="UTF-8"?>
<svg id="Layer_2" data-name="Layer 2" xmlns="http://www.w3.org/2000/svg" viewBox="0 0 776.57 1059.27">
  <defs>
    <style>
      .cls-1 {
        fill: #faa073;
      }

      .cls-2 {
        fill: #ffa759;
      }

      .cls-3 {
        fill: #e47329;
      }
    </style>
  </defs>
  <g id="Layer_1-2" data-name="Layer 1">
    <path class="cls-1" d="m356.16,560.64c-.08.05-.16.09-.24.14-.85.48-1.73.85-2.64,1.12-.06.02-.13.04-.19.05-.48.13-.96.24-1.44.31-8.16,1.25-16.13,2.44-23.95,3.56-9.9,1.42-19.54,2.72-28.97,3.86-8.03.97-15.9,1.83-23.65,2.55-30.33,5.15-61.62,8.42-112.31-2.66-30.48-5.37-61.32-15.3-94.64-31.54-5.57-2.71-11.2-5.6-16.92-8.67-3.58-1.93-7.19-3.92-10.84-6-2.56-1.46-4.52-3.77-5.54-6.53-1.44-3.9-2.85-8.07-4.23-12.47,7.57,30.61,18.78,56.38,33.4,76.7,16.21,22.53,36.6,38.5,60.61,47.47,15.06,5.63,31.39,8.41,48.78,8.41,53.5,0,116.97-26.32,183.85-77.03-.35.26-.72.5-1.09.72Z"/>
    <path class="cls-1" d="m776.57,663.28s0,.1-.01.14c-.01.26-.03.52-.06.78-.02.18-.05.36-.08.53-.03.2-.06.4-.11.6-.04.19-.09.38-.14.56-.05.18-.09.35-.15.53-.06.19-.12.38-.19.57-.06.16-.12.33-.19.49-.08.18-.15.37-.24.55-.07.16-.16.32-.24.47-.09.17-.18.34-.27.51-.1.18-.22.35-.33.52-.09.14-.17.28-.27.41-.21.29-.43.57-.66.85-.09.1-.18.2-.27.3-.16.18-.32.36-.49.53-.1.1-.21.2-.32.3-.17.16-.34.31-.51.45-.12.1-.24.19-.36.28-.18.14-.36.27-.54.39-.13.09-.26.17-.39.26-.18.12-.37.22-.56.33-.14.08-.29.16-.43.24-.18.09-.37.18-.56.26-.16.07-.32.15-.48.21-.18.07-.37.13-.55.2-.18.06-.35.13-.53.18-.2.06-.42.11-.63.16-.18.04-.36.09-.54.13-1.06.21-2.11.42-3.16.6-4.27.76-8.48,1.29-12.62,1.6-3.11.23-6.18.35-9.22.35-38.65,0-72.87-18.35-114.28-40.56-4.89-2.62-9.9-5.31-15.04-8.03-.16-.08-.32-.17-.47-.25-1.52-.81-3.06-1.62-4.61-2.43-.39-.2-.78-.41-1.17-.61-1.33-.69-2.66-1.39-4.01-2.09-.53-.27-1.07-.55-1.6-.83-1.22-.63-2.44-1.26-3.68-1.89-.62-.32-1.25-.63-1.88-.95-1.16-.59-2.33-1.18-3.51-1.77-.68-.34-1.38-.68-2.06-1.03-1.14-.57-2.28-1.13-3.43-1.7-.73-.36-1.47-.72-2.21-1.08-1.12-.55-2.25-1.09-3.39-1.64-.77-.37-1.56-.74-2.34-1.11-1.12-.53-2.25-1.07-3.38-1.6-.8-.38-1.61-.75-2.42-1.12-1.13-.52-2.27-1.05-3.41-1.57-.83-.38-1.68-.76-2.52-1.14-1.14-.51-2.28-1.02-3.42-1.53-.87-.38-1.74-.76-2.61-1.14-1.15-.5-2.3-1-3.46-1.5-.89-.38-1.79-.76-2.69-1.14-1.16-.49-2.33-.98-3.51-1.47-.92-.38-1.84-.76-2.77-1.14-1.18-.48-2.37-.96-3.57-1.43-.94-.37-1.89-.75-2.84-1.12-1.2-.47-2.41-.94-3.63-1.4-.97-.37-1.93-.74-2.91-1.1-1.23-.46-2.46-.92-3.7-1.37-.99-.36-1.98-.72-2.98-1.08-1.25-.45-2.51-.89-3.77-1.33-1.01-.35-2.03-.71-3.05-1.06-1.28-.44-2.56-.87-3.86-1.3-1.04-.34-2.07-.69-3.12-1.03-1.3-.42-2.62-.84-3.94-1.26-1.06-.33-2.12-.67-3.19-1-1.33-.41-2.68-.81-4.02-1.21-1.08-.32-2.16-.65-3.26-.96-1.36-.4-2.74-.78-4.12-1.17-1.1-.31-2.2-.62-3.31-.92-1.4-.38-2.82-.76-4.24-1.13-1.12-.29-2.23-.59-3.36-.88-1.45-.37-2.91-.73-4.38-1.09-1.13-.28-2.25-.56-3.4-.83-1.49-.35-3.01-.7-4.52-1.04-1.14-.26-2.28-.52-3.43-.78-1.54-.34-3.11-.66-4.68-.99-1.15-.24-2.29-.49-3.45-.72-1.62-.33-3.26-.64-4.9-.95-1.13-.22-2.26-.44-3.4-.65-1.74-.32-3.52-.62-5.28-.93-1.07-.18-2.12-.38-3.2-.56-1.97-.33-3.98-.63-5.98-.94-.9-.14-1.79-.29-2.7-.42-2.93-.43-5.88-.85-8.87-1.24-.08-.01-.17-.02-.25-.03-2.86-.37-5.74-.72-8.66-1.05-3.21-.36-6.45-.7-9.73-1.02-.99-.09-1.95-.31-2.87-.63-2.61-.9-4.88-2.64-6.42-4.99-2.08-3.19-2.59-7.16-1.39-10.77.79-2.38,1.6-4.75,2.41-7.12.01-.04.02-.09.04-.13l.02-.06c-21.11,57.14-42.47,161.6-33.26,268.29,13.03,151.04,78.75,217.06,131.58,245.85,1.29.7,2.7,1.17,4.15,1.39,14.29,2.12,28.05,3.17,41.27,3.17,46.92,0,86.97-13.32,119.43-39.8,38.71-31.58,66.67-80.93,85.49-150.88,14.46-53.77,23.42-118.96,28.18-205.15,0-.05,0-.1,0-.15Z"/>
    <path class="cls-3" d="m776.56,635.7h0s0-1.14,0-1.14h0c0-1.4,0-2.8-.02-4.2,0,0,0,0,0,0v-1.14s0,0,0,0v-.1c-.01-1.43-.03-2.86-.04-4.3h0s-.01-.99-.01-.99c0,0,0-.01,0-.02-.02-1.72-.05-3.45-.08-5.17,0-.03,0-.06,0-.09-.06-3.62-.14-7.24-.24-10.87,0,0,0-.01,0-.02l-.03-.97h0c-.04-1.45-.08-2.89-.13-4.34,0,0,0,0,0-.01h0s-.04-1.26-.04-1.26c0,0,0,0,0,0-.04-1.38-.09-2.77-.14-4.15h0s-.04-1.21-.04-1.21c0,0,0-.01,0-.02-.06-1.53-.12-3.06-.18-4.59,0,0,0,0,0,0l-.03-.66s0-.02,0-.03c-.15-3.62-.32-7.24-.51-10.86,0,0,0,0,0,0l-.04-.73s0-.01,0-.02c-.08-1.51-.16-3.01-.24-4.52,0,0,0,0,0,0l-.07-1.26s0,0,0,0c-.08-1.36-.16-2.73-.24-4.09,0,0,0,0,0,0h0s-.08-1.34-.08-1.34c0,0,0,0,0,0h0c-.09-1.4-.17-2.8-.27-4.2,0,0,0,0,0,0,0,0,0,0,0-.01l-.07-1.07s0-.01,0-.02c-.24-3.59-.49-7.19-.77-10.78,0,0,0,0,0-.01l-.02-.28s0,0,0-.01c-.13-1.65-.26-3.3-.39-4.95,0,0,0,0,0-.01l-.09-1.12h0s0-.06,0-.08c-.11-1.37-.23-2.74-.34-4.11,0,0,0,0,0,0l-.12-1.4s0,0,0,0c-.11-1.33-.23-2.65-.35-3.98,0,0,0,0,0-.01l-.12-1.3s0,0,0-.01c0,0,0,0,0,0-.14-1.5-.28-3-.42-4.5,0,0,0,0,0,0l-.07-.72s0,0,0,0c0,0,0-.01,0-.02-.06-.59-.12-1.17-.18-1.76-2.41-26.06-5.63-51.31-9.68-75.62-4.98-29.89-11.28-58.84-18.84-86.77-.04-.13-.07-.27-.11-.4,0,0,0,0,0,0l-.5-1.86c-.26-.98-.53-1.96-.79-2.94l-.47-1.74h0c-.31-1.13-.62-2.25-.93-3.37,0,0,0,0,0-.01l-.35-1.25s0,0,0,0c-.42-1.51-.85-3.01-1.27-4.5,0,0,0,0,0,0l-.42-1.44s0,0,0,0h0c-.3-1.04-.6-2.08-.9-3.12,0,0,0,0,0-.01l-.54-1.82s0,0,0,0c0,0,0,0,0,0l-.8-2.71s0,0,0,0c0,0,0,0,0-.01l-.58-1.92s0,0,0,0l-.8-2.64s0,0,0,0l-.57-1.87c-.29-.95-.59-1.9-.88-2.84,0,0,0,0,0,0,0,0,0,0,0,0l-.51-1.62s0,0,0-.01c-.46-1.45-.92-2.9-1.38-4.33,0,0,0,0,0,0l-.34-1.05s0,0,0,0c-.36-1.11-.72-2.23-1.09-3.34,0,0,0,0,0,0,0,0,0,0,0,0l-.58-1.73s0-.01,0-.02l-.87-2.62s0,0,0,0l-.64-1.88s0,0,0,0c-.28-.83-.57-1.66-.85-2.49h0s0,0,0,0l-.65-1.89s0,0,0,0l-.88-2.51s0,0,0-.01c0,0,0,0,0,0l-.62-1.77s0,0,0-.01c0,0,0,0,0,0-.35-.98-.7-1.95-1.05-2.92,0,0,0,0,0,0l-.49-1.35s0,0,0-.01c-.49-1.36-.99-2.72-1.49-4.08,0,0,0,0,0,0,0,0,0,0,0,0l-.59-1.58s0,0,0,0c0,0,0-.01,0-.02l-.97-2.58s0,0,0,0l-.69-1.82s0,0,0,0c0,0,0,0,0,0l-.89-2.32s0-.01,0-.02c-.24-.62-.48-1.24-.72-1.86,0,0,0,0,0-.01-.3-.78-.61-1.55-.91-2.33h0s-.72-1.82-.72-1.82c0,0,0,0,0-.01l-.98-2.42s0,0,0,0l-.67-1.66s0,0,0-.02c-.53-1.3-1.06-2.59-1.59-3.88,0,0,0,0,0,0l-.56-1.34s0,0,0,0c-.37-.89-.74-1.77-1.12-2.66,0,0,0,0,0,0l-.74-1.72s0,0,0,0c0,0,0,0,0-.01l-.96-2.23s0,0,0,0l-.78-1.79s0,0,0-.01c-.32-.72-.64-1.45-.96-2.17h0s-.79-1.77-.79-1.77c0,0,0,0,0,0-.33-.74-.66-1.48-1-2.21,0,0,0,0,0-.01l-.76-1.67s0,0,0,0c0,0,0,0,0,0-.4-.88-.81-1.75-1.21-2.62,0,0,0,0,0,0l-.79-1.7s0,0,0,0c0,0,0,0,0,0-.5-1.06-.99-2.11-1.49-3.15,0,0,0,0,0,0,0,0,0,0,0,0l-.77-1.59s0,0,0,0c-.35-.72-.69-1.43-1.04-2.14,0,0,0,0,0-.01l-.85-1.72s0,0,0,0c0,0,0,0,0,0-.33-.68-.67-1.35-1.01-2.03,0,0,0,0,0,0,0,0,0,0,0,0,0,0,0,0,0,0,0,0,0,0,0,0-.28-.57-.57-1.13-.85-1.69,0,0,0,0,0-.01-.34-.68-.69-1.35-1.03-2.03,0,0,0,0,0,0l-.86-1.68s0,0,0,0c-.37-.71-.74-1.42-1.11-2.13,0,0,0,0,0,0l-.77-1.48s0,0,0,0c-.61-1.15-1.22-2.29-1.83-3.42,0,0,0,0,0,0l-.76-1.39s0,0,0,0c-.39-.71-.78-1.42-1.17-2.13,0,0,0,0,0,0,0,0,0,0,0,0l-.89-1.6s0,0,0,0c-.36-.64-.71-1.28-1.07-1.91,0,0,0,0,0,0-.3-.54-.61-1.07-.91-1.6,0,0,0,0,0,0-.36-.63-.72-1.25-1.08-1.88,0,0,0,0,0,0l-.92-1.59c-.37-.64-.75-1.27-1.13-1.9,0,0,0-.01-.01-.02l-.88-1.47c-.47-.79-.95-1.57-1.43-2.36,0,0,0,0,0,0-.37-.61-.75-1.22-1.12-1.83,0,0,0,0,0,0-.48-.77-.96-1.54-1.44-2.31,0,0,0,0,0,0l-.9-1.42s0,0,0,0c0,0,0,0,0-.01-.39-.61-.77-1.21-1.16-1.81,0,0,0,0,0,0,0,0,0,0,0,0l-.97-1.5s0,0,0-.01l-1.12-1.71s0,0,0-.01c0,0,0,0,0,0l-.99-1.48s0,0,0,0c0,0,0,0,0,0-.38-.57-.77-1.14-1.15-1.71l-.98-1.44s0,0,0,0c-.43-.63-.87-1.26-1.31-1.88,0,0,0,0,0,0l-.83-1.2s0,0,0,0c-.69-.98-1.39-1.95-2.08-2.92,0,0,0,0,0,0l-.87-1.2s0,0,0,0c-.43-.6-.87-1.19-1.31-1.78,0,0,0,0,0-.01l-1-1.33s0,0-.01-.01c0,0,0,0,0,0-.41-.54-.81-1.08-1.22-1.61,0,0,0,0,0,0,0,0,0,0,0,0l-1.02-1.33s0,0,0,0h0s0,0,0,0c-.4-.52-.81-1.04-1.21-1.56,0,0,0,0,0,0,0,0,0,0,0,0-.34-.44-.69-.88-1.03-1.31,0,0,0,0,0,0-.44-.55-.88-1.1-1.32-1.64,0,0,0,0,0,0l-.96-1.18s0,0,0,0c-.64-.79-1.29-1.57-1.94-2.34,0,0,0,0-.01-.01l-.97-1.15s0,0,0,0c0,0,0,0,0,0-.53-.63-1.06-1.25-1.6-1.87h0s0,0,0,0l-1-1.14s0,0,0,0c0,0,0,0,0,0h0c-.44-.51-.89-1.02-1.34-1.52,0,0,0-.01-.01-.02-.36-.4-.71-.79-1.07-1.19,0,0,0,0,0,0-.44-.49-.88-.97-1.32-1.45,0,0,0,0,0,0-.35-.38-.71-.77-1.06-1.15,0,0,0,0,0,0-.4-.43-.8-.85-1.2-1.28l-.15-.15s0,0-.01-.01c0,0,0-.01-.01-.02l-1.04-1.1s0,0-.01-.01c-.52-.54-1.05-1.08-1.57-1.62h0s0,0,0,0c0,0,0,0-.01-.01l-.81-.83s0,0-.01-.01c-.78-.79-1.57-1.57-2.36-2.35h0s0,0,0,0l-.96-.93s0,0,0,0c-.5-.48-1-.96-1.51-1.44,0,0,0,0,0,0l-1.08-1.01s0,0,0,0c-.48-.44-.95-.88-1.43-1.32,0,0,0,0,0,0-.37-.34-.75-.68-1.13-1.02,0,0-.01,0-.02-.01-.47-.42-.94-.84-1.42-1.26,0,0,0,0,0,0,0,0,0,0,0,0l-.13-.11c-.32-.28-.65-.57-.97-.85,0,0,0,0,0,0,0,0,0,0-.01,0,0,0,0,0,0,0,0,0,0,0,0,0-.52-.45-1.03-.89-1.55-1.33,0,0,0,0,0,0l-.26-.22c-.25-.21-.49-.42-.74-.62,0,0,0,0,0,0-.83-.69-1.66-1.38-2.5-2.05,0,0,0,0,0,0,0,0,0,0,0,0l-.77-.6s0,0,0,0c-.61-.48-1.22-.96-1.83-1.44h0s0,0,0,0c0,0,0,0,0,0,0,0,0,0,0,0-.26-.2-.53-.4-.79-.6l-.28-.21s0,0-.01,0c-.51-.39-1.02-.78-1.54-1.16,0,0,0,0,0,0,0,0,0,0,0,0-.39-.29-.78-.57-1.17-.86,0,0,0,0,0,0-.5-.37-1.01-.73-1.52-1.09,0,0,0,0-.01,0-.38-.27-.76-.54-1.14-.81,0,0,0,0,0,0,0,0,0,0,0,0-.53-.37-1.07-.74-1.6-1.1,0,0,0,0,0,0l-.24-.16c-.29-.19-.57-.39-.86-.58,0,0,0,0,0,0,0,0,0,0,0,0,0,0,0,0,0,0,0,0,0,0,0,0-.68-.46-1.36-.9-2.05-1.34,0,0,0,0,0,0l-.63-.41s0,0-.01,0c0,0,0,0-.01,0-.89-.57-1.78-1.12-2.67-1.67,0,0,0,0,0,0,0,0,0,0,0,0l-1.03-.62s0,0,0,0c-.58-.35-1.16-.69-1.74-1.03,0,0-.01,0-.02,0-.38-.22-.75-.43-1.13-.65,0,0,0,0,0,0,0,0-.02,0-.02-.01,0,0,0,0-.01,0,0,0,0,0,0,0-.55-.31-1.1-.62-1.64-.92,0,0-.01,0-.02,0-.39-.22-.78-.43-1.18-.64,0,0,0,0,0,0-.55-.3-1.1-.59-1.66-.88,0,0,0,0,0,0l-.09-.05c-.36-.19-.71-.37-1.07-.55,0,0,0,0,0,0,0,0,0,0,0,0-.64-.33-1.29-.65-1.94-.96,0,0,0,0-.01,0l-.91-.45s0,0,0,0c0,0,0,0,0,0-.93-.44-1.86-.88-2.8-1.3h0s0,0,0,0c0,0-.02,0-.03-.01,0,0,0,0-.01,0-.2-.09-.39-.17-.59-.26l-.22-.1s0,0,0,0,0,0,0,0c-.69-.31-1.38-.61-2.07-.9,0,0,0,0,0,0-.3-.13-.6-.25-.9-.37l-.25-.1s0,0,0,0c-.6-.25-1.2-.49-1.8-.73,0,0,0,0,0,0-.4-.16-.8-.31-1.21-.47,0,0,0,0,0,0-.6-.23-1.2-.45-1.8-.67,0,0,0,0,0,0h0s-.2-.07-.2-.07c-.32-.12-.65-.24-.97-.35,0,0,0,0-.01,0-.64-.23-1.28-.44-1.91-.66,0,0,0,0-.01,0l-1.07-.36s0,0,0,0c0,0,0,0,0,0-.91-.3-1.83-.58-2.75-.86,0,0-.01,0-.02,0h0c-.07-.02-.14-.04-.21-.06-2.85-.85-5.75-1.59-8.69-2.23-4.97-1.17-10.01-2.05-15.1-2.61-49.84-5.57-105.4,17.01-169.84,69.02-8.91,7.19-18.05,15-27.43,23.44-40.81,36.02-84.92,82.76-131.84,139.74.14-1.12.27-2.24.4-3.36,0-.07.01-.13.02-.2.16-1.43.31-2.86.44-4.29,0-.03,0-.07,0-.1.97-10.35,1.34-20.9,1.11-31.63,0-.13,0-.25,0-.38-.03-1.36-.07-2.73-.12-4.1,0-.23-.02-.45-.03-.68-.05-1.28-.11-2.55-.18-3.83-.01-.28-.03-.56-.05-.84-.07-1.24-.15-2.47-.23-3.71-.02-.31-.04-.62-.06-.92-.09-1.23-.18-2.45-.29-3.69-.03-.31-.05-.62-.08-.93-.11-1.26-.23-2.53-.35-3.8-.03-.27-.05-.54-.08-.8-.14-1.4-.3-2.8-.46-4.2-.02-.14-.03-.27-.05-.41-.18-1.55-.37-3.11-.58-4.67-.29-2.21-.61-4.43-.95-6.66-.06-.4-.12-.79-.18-1.19-.06-.36-.11-.72-.16-1.07-6.82-55.1-27.57-109.11-61.95-161.08-6.54-9.9-13.58-19.68-21.03-29.27-19.67-27.18-39.73-49.11-56.59-63.2-.06-.05-.11-.1-.17-.14-.98-.82-1.96-1.62-2.92-2.38-.07-.06-.15-.12-.22-.17-.97-.77-1.92-1.51-2.86-2.22-.09-.07-.17-.13-.26-.2-.96-.72-1.91-1.42-2.85-2.08-.14-.1-.27-.19-.41-.28-.89-.63-1.78-1.24-2.64-1.81-.01,0-.03-.02-.04-.03-.03-.02-.05-.04-.08-.05-.29-.19-.58-.36-.88-.52-.04-.02-.08-.04-.12-.06-.09-.05-.18-.09-.27-.13-.2-.1-.39-.19-.59-.28-.07-.03-.14-.07-.22-.1-.08-.03-.16-.06-.23-.09-.2-.08-.4-.15-.6-.21-.1-.03-.2-.07-.3-.1-.04-.01-.08-.03-.13-.04-.31-.09-.61-.17-.93-.24-.04,0-.07-.02-.11-.02-.11-.02-.22-.03-.33-.05-.21-.04-.42-.07-.63-.1-.1-.01-.2-.03-.29-.04-.05,0-.1,0-.15,0-.23-.02-.45-.03-.68-.04-.09,0-.18-.01-.27-.01-.05,0-.09,0-.14,0-.33,0-.66,0-.99.04-.02,0-.04,0-.06,0-.01,0-.02,0-.03,0-.09,0-.18.02-.27.03-.23.02-.46.05-.69.09-.08.01-.17.03-.25.05-.05,0-.09.01-.14.02-.04,0-.08.02-.12.03-.18.04-.36.08-.53.12-.11.03-.22.05-.32.09-.08.02-.17.04-.25.07-.03,0-.06.02-.1.03-.13.04-.27.09-.4.14-.09.03-.19.06-.28.1-.09.03-.17.07-.26.1-.13.05-.26.11-.4.17-.1.04-.2.08-.3.13-.09.04-.18.09-.27.14-.01,0-.02.01-.04.02-.14.07-.28.14-.42.22-.07.04-.13.08-.2.11-.14.08-.27.16-.4.25,0,0-.02.01-.02.02-.09.05-.17.1-.26.16-.07.05-.14.1-.21.15,0,0-.02.01-.03.02-.12.09-.24.17-.36.26-.09.07-.17.13-.25.2-.11.09-.22.18-.33.27-.08.07-.16.13-.23.2-.1.09-.19.18-.29.27-.1.1-.2.19-.3.29-.06.06-.12.12-.17.18-.05.06-.1.12-.15.17-.09.1-.17.2-.26.3-.04.05-.09.1-.13.15-.06.08-.12.16-.19.24-.03.04-.07.08-.1.12-.03.04-.06.09-.09.14-.09.12-.18.24-.26.36-.06.09-.12.18-.17.27-.02.03-.03.05-.05.08-.05.08-.1.15-.15.23-.07.12-.14.24-.2.36-.06.11-.12.22-.18.33-.04.08-.09.16-.13.24-.05.1-.1.21-.14.32-.03.06-.05.12-.08.17-.04.09-.08.17-.12.26-.03.07-.05.14-.08.21-.05.14-.11.28-.16.42-.04.11-.08.22-.11.33-.04.11-.07.23-.1.34-.03.11-.07.23-.1.34-.03.12-.06.24-.08.36-.03.15-.07.3-.1.45,0,.05-.02.09-.03.14-.01.08-.02.16-.04.24-.02.11-.03.23-.05.34-.02.12-.04.23-.05.35,0,.05,0,.1-.01.15-.01.12-.02.24-.02.35-.01.18-.02.35-.03.53,0,.09,0,.18,0,.28,0,.09,0,.18,0,.27,0,.21.02.41.03.62,0,.1.01.2.02.3,0,.05.01.1.02.15.04.35.09.69.15,1.04h0c18.24,93.03,21.91,181.65,10.91,263.38,0,.02,0,.03,0,.05-.98,6.7-1.6,14.32-2.2,21.71-.14,1.7-.3,3.65-.48,5.73-.58,6.24-1.36,13.38-2.35,18.92-3.12-4.87-7.31-12.68-12.21-24.6l-.06-.14c-.59-1.48-1.16-2.97-1.71-4.47-.16-.44-.33-.89-.49-1.33-.36-1-.71-2-1.05-3-.36-1.04-.69-2.08-1.03-3.12-8.77-27.46-9.63-53-8.85-69.31.05-.87.08-1.74.14-2.61.09-1.42.19-2.84.32-4.26v-.09c.03-.21.04-.42.06-.63.62-3.77,1.18-6.9,1.59-9.2.51-2.85.93-5.21.96-7.35,0,0,0,0,0,0,0-.03,0-.06,0-.09,0,0,0,0,0-.01,0,0,0,0,0,0,.02-2.38-.48-4.48-1.9-6.65,0-.01-.02-.03-.03-.04-.14-.21-.29-.42-.44-.63-.05-.07-.09-.13-.14-.2-.02-.02-.04-.04-.06-.07-.04-.05-.07-.11-.12-.16-.07-.09-.15-.16-.23-.25-.23-.27-.46-.53-.71-.78-.12-.13-.25-.25-.38-.37-.2-.19-.41-.36-.62-.54-.08-.07-.16-.13-.24-.2-.08-.06-.15-.12-.23-.18-.04-.03-.09-.06-.14-.1-.11-.08-.22-.15-.33-.22-.24-.16-.48-.32-.73-.46-.04-.02-.07-.04-.1-.06-.04-.03-.09-.04-.14-.07-.02-.01-.05-.02-.08-.04-.26-.14-.53-.28-.8-.4-.11-.05-.21-.09-.32-.13-.05-.02-.1-.05-.15-.07-.05-.02-.1-.03-.15-.05-.15-.06-.3-.11-.45-.16-.08-.03-.16-.06-.24-.08-.02,0-.04-.01-.06-.02-.09-.03-.19-.05-.28-.08-.14-.04-.27-.08-.41-.12-.12-.03-.24-.05-.35-.08-.1-.02-.19-.04-.29-.06-.11-.02-.22-.05-.33-.06-.11-.02-.22-.03-.33-.04-.16-.02-.32-.05-.48-.06-.14-.01-.29-.02-.44-.03-.02,0-.04,0-.07,0,0,0-.02,0-.03,0-.01,0-.02,0-.03,0-.05,0-.1,0-.15,0-.3-.01-.59-.01-.88,0-.04,0-.08,0-.12,0-.02,0-.03,0-.05,0,0,0-.01,0-.02,0-.09,0-.18.02-.27.02-.27.02-.55.04-.82.08-.06,0-.13,0-.19.02,0,0,0,0-.01,0-.25.04-.49.09-.73.14-.04,0-.07.01-.11.02-.1.02-.2.03-.29.06-.04,0-.08.02-.11.03-1.15.29-2.24.74-3.25,1.33,0,0,0,0-.01,0-.1.06-.19.13-.28.19,0,0-.01,0-.02.01-.22.14-.44.28-.66.43-.02.01-.03.02-.05.03-.05.03-.09.07-.13.1-.03.02-.05.04-.08.05-.06.05-.12.1-.18.15-.09.07-.19.14-.28.22-.04.04-.09.07-.13.11-.02.02-.03.03-.05.05-.03.02-.05.05-.08.07-.07.07-.15.13-.22.2-.02.02-.04.04-.06.06-.04.04-.08.08-.12.12-.02.02-.04.04-.07.06-.1.1-.21.2-.31.31-.08.09-.16.18-.24.27-.06.07-.13.14-.19.22-.02.02-.03.04-.05.06-.12.14-.24.28-.36.43-.05.07-.1.14-.15.21-.07.09-.14.18-.2.27-.06.08-.12.16-.18.24-.02.04-.05.07-.07.11-.01.02-.02.04-.04.06-.02.03-.04.06-.06.09-.05.08-.09.17-.14.25-.04.07-.09.13-.13.2-.06.11-.11.22-.17.32-.04.07-.08.13-.12.2-.02.03-.04.07-.05.1,0,.02-.02.03-.02.05,0,.02-.02.04-.03.05-.01.02-.02.05-.03.07-.14.27-.26.56-.38.85-.03.06-.06.12-.08.18,0,.02-.02.05-.03.07,0,.02-.01.03-.02.05,0,.01,0,.03-.01.04,0,.01-.01.03-.02.04,0,0,0,0,0,0-.03.08-.06.17-.09.25,0,0,0,0,0,0,0,0,0,0,0,0-.02.05-.03.11-.05.16-.01.03-.03.07-.04.1,0,.03-.02.06-.03.09-.13.38-.25.78-.37,1.23-.56,1.94-1.08,4.6-1.63,8.7-.07.5-.13,1.02-.2,1.56-.22,1.7-.42,3.4-.57,5.02-2.71,10.18-4.29,24.62-5.04,41.25-3.41,40.29-3.52,93.26,7.21,153.16,1.79,12.5,3.91,25,6.33,37.46,4.29,24.96,9.37,47.06,15.02,65.11,1.38,4.4,2.79,8.57,4.23,12.47,1.02,2.76,2.98,5.08,5.54,6.53,3.65,2.07,7.26,4.07,10.84,6,5.72,3.07,11.35,5.96,16.92,8.67,33.32,16.24,64.16,26.17,94.64,31.54,50.68,11.08,81.98,7.81,112.31,2.66,7.75-.72,15.62-1.58,23.65-2.55,9.43-1.14,19.08-2.45,28.97-3.86,7.82-1.12,15.79-2.31,23.95-3.56h0c.48-.08.96-.18,1.43-.31.06-.02.13-.04.19-.05.39-.12.78-.25,1.15-.41.32-.13.63-.28.94-.44.04-.02.08-.04.12-.06.08-.04.16-.08.24-.12.06-.03.12-.06.19-.09.08-.05.16-.09.24-.14.37-.22.74-.46,1.09-.72,0,0,.01,0,.02-.01.03-.02.06-.04.08-.06,0,0,0,0,0,0,.03-.02.05-.04.08-.06,0,0,0,0,.01,0,.28-.22.56-.44.85-.66,1.55-1.19,3.11-2.4,4.65-3.62.3-.23.59-.46.89-.69,0,0,0,0,0,0,0,0,0,0,0,0,.04-.03.08-.06.12-.09,1.2-.95,2.4-1.91,3.59-2.87.49-.39.98-.78,1.47-1.17,1.51-1.22,3.02-2.46,4.53-3.7.11-.09.22-.18.32-.26.05-.04.1-.08.14-.12,2.36-1.95,4.71-3.93,7.06-5.93.05-.04.1-.08.15-.13,9.17-7.82,18.22-16.02,27.13-24.61-.38.99-.74,1.97-1.11,2.96-.22.58-.44,1.17-.66,1.75-.64,1.71-1.28,3.42-1.91,5.14-.35.97-.71,1.94-1.06,2.91-.5,1.39-1.01,2.78-1.5,4.17-.62,1.74-1.23,3.48-1.83,5.22-.23.67-.47,1.35-.7,2.02-.04.13-.09.25-.13.38,0,0,0,0,0,.01,0,0,0,0,0,0l-.04.1-.02.06s-.03.09-.04.13c-.81,2.37-1.62,4.74-2.41,7.12-1.2,3.61-.69,7.58,1.39,10.77,1.54,2.36,3.81,4.1,6.42,4.99.92.32,1.88.53,2.87.63,3.28.31,6.53.65,9.73,1.02,2.92.33,5.8.68,8.66,1.05.08.01.17.02.25.03,2.99.39,5.95.8,8.87,1.24.91.14,1.8.28,2.7.42,2,.31,4.01.61,5.98.94,1.08.18,2.13.37,3.2.56,1.77.31,3.54.61,5.28.93,1.14.21,2.27.43,3.4.65,1.64.31,3.28.62,4.9.95,1.16.23,2.3.48,3.45.72,1.56.33,3.13.65,4.68.99,1.15.25,2.29.52,3.43.78,1.51.34,3.03.68,4.52,1.04,1.14.27,2.26.55,3.4.83,1.46.36,2.93.72,4.38,1.09,1.13.29,2.24.59,3.36.88,1.42.37,2.84.75,4.24,1.13,1.11.3,2.21.62,3.31.92,1.38.39,2.76.78,4.12,1.17,1.09.32,2.17.64,3.26.96,1.35.4,2.69.8,4.02,1.21,1.07.33,2.13.66,3.19,1,1.32.42,2.63.83,3.94,1.26,1.05.34,2.08.68,3.12,1.03,1.29.43,2.58.86,3.86,1.3,1.02.35,2.04.7,3.05,1.06,1.26.44,2.52.89,3.77,1.33,1,.36,1.99.72,2.98,1.08,1.24.45,2.48.91,3.7,1.37.97.37,1.94.73,2.91,1.1,1.22.47,2.43.93,3.63,1.4.95.37,1.9.74,2.84,1.12,1.2.48,2.38.95,3.57,1.43.93.38,1.85.76,2.77,1.14,1.18.49,2.35.98,3.51,1.47.9.38,1.8.76,2.69,1.14,1.16.5,2.31,1,3.46,1.5.87.38,1.75.76,2.61,1.14,1.15.51,2.29,1.02,3.42,1.53.84.38,1.68.76,2.52,1.14,1.15.52,2.28,1.05,3.41,1.57.81.37,1.62.75,2.42,1.12,1.14.53,2.26,1.07,3.38,1.6.78.37,1.56.74,2.34,1.11,1.14.55,2.26,1.09,3.39,1.64.74.36,1.48.72,2.21,1.08,1.15.57,2.29,1.13,3.43,1.7.69.34,1.38.68,2.06,1.03,1.18.59,2.35,1.18,3.51,1.77.62.32,1.25.63,1.88.95,1.24.63,2.46,1.26,3.68,1.89.53.28,1.07.55,1.6.83,1.35.7,2.68,1.39,4.01,2.09.39.2.78.41,1.17.61,1.55.81,3.08,1.62,4.61,2.43.16.08.32.17.47.25,5.14,2.72,10.14,5.4,15.04,8.03,41.42,22.21,75.63,40.56,114.28,40.56,3.04,0,6.11-.11,9.22-.35,4.14-.31,8.34-.84,12.62-1.6,1.05-.19,2.1-.39,3.16-.6.03,0,.06-.01.09-.02.15-.03.3-.08.45-.11.21-.05.42-.1.63-.16.18-.05.35-.12.53-.18.18-.06.37-.13.55-.2.16-.07.32-.14.48-.21.19-.08.38-.17.56-.26.15-.08.29-.16.43-.24.19-.11.37-.22.56-.33.13-.08.26-.17.39-.26.18-.13.36-.26.54-.39.12-.09.24-.18.36-.28.18-.15.35-.3.51-.45.11-.1.22-.2.32-.3.17-.17.33-.35.49-.53.09-.1.18-.19.27-.3.23-.27.45-.56.66-.85.09-.13.18-.28.27-.41.11-.17.22-.34.33-.52.1-.17.18-.34.27-.51.08-.16.16-.31.24-.47.08-.18.16-.36.24-.55.07-.16.13-.32.19-.49.07-.19.13-.38.19-.57.05-.17.1-.35.15-.53.05-.19.1-.37.14-.56.04-.2.07-.4.11-.6.03-.18.06-.35.08-.53.03-.26.04-.52.06-.78,0-.05,0-.1.01-.14,0-.07.01-.14.02-.21v-.71s.01,0,.01,0c.03-1.38.06-2.76.09-4.15,0,0,0-.01,0-.02,0,0,0-.01,0-.02h0s.02-1.16.02-1.16c0,0,0,0,0,0,.03-1.5.05-3,.07-4.5,0-.02,0-.04,0-.05v-.69s.01,0,.01,0c.05-3.6.08-7.21.09-10.82v-.43s0-.03,0-.05c0-.84,0-1.69,0-2.53,0-.75,0-1.49,0-2.24Z"/>
    <path class="cls-2" d="m155.92,145.33c60.98,117.69,22.23,218.13,54.09,229.42,29.27,10.37,64.66-73.45,195.24-169.76,42.88-31.63,85.29-56.42,134.9-50.33,29.5,3.62,50.08,17.14,63.42,26.11,67.68,45.54,91.5,120.31,115.64,205.17,9.48,33.33,38.98,136.99,18.65,146.12-11.46,5.15-34.17-22.21-41.03-30.48-37.32-44.97-44.49-93.57-50.29-120.16-16.31-74.82-67.6-185.66-126.91-195.06-30.9-4.9-48.38,20.22-149.21,110.05-157.59,140.39-178.68,135.86-186.52,132.43-41.9-18.32,7.49-129.96-57.5-285.51-19.78-47.35-45.53-86.75-41.35-89.4,4.61-2.93,44.19,39.88,70.88,91.39Z"/>
  </g>
</svg>