<svg xmlns="http://www.w3.org/2000/svg" viewBox="0 0 634.49 994.61"><g id="Layer_2" data-name="Layer 2"><g id="Layer_1-2" data-name="Layer 1"><path d="M609.43,0V92.34H264.67L216.12,356.9q63.24-18.54,114-18.55,132.43,0,218.42,88.71t86,227.22q0,95.64-44.18,175.45T470.6,952.07q-75.54,42.55-174.46,42.54-118.06,0-199.18-72.22t-97-187H99.59q11.22,56.07,37.93,91t71.23,56.39a212.53,212.53,0,0,0,93.33,21.44q95.63,0,164.23-72.45T534.9,650.68q0-98.13-62-159.39T307.35,430q-85.74,0-207.76,52.11L189.29,0Z"/></g></g></svg>