<svg xmlns="http://www.w3.org/2000/svg" viewBox="0 0 639.83 1015"><defs><style>.cls-1{fill:#eba049;}.cls-1,.cls-2,.cls-4{stroke:#6a184d;stroke-miterlimit:10;}.cls-1,.cls-4{stroke-width:25px;}.cls-2,.cls-4{fill:#ff42bd;}.cls-2{stroke-width:24px;}.cls-3{fill:#ffbee8;}.cls-5{fill:#ad077a;}.cls-6{fill:#f1f1f1;}.cls-7{fill:#ffff50;}.cls-8{fill:#00c2d9;}</style></defs><g id="Layer_2" data-name="Layer 2"><g id="Layer_1-2" data-name="Layer 1"><path class="cls-1" d="M66.68,282.84c-.78-36.12.79-105.22,0-141.34,23.35-4.13,56.5-10.56,91.87-30.62,51.83-35.34,51-37.76,66-61.25H411.79V816.4H627.33v186.1H12.5V816.4h212c.79-195.91-.78-387.11,0-583-40,25.91-21.2,16.49-66,35.34C111.7,288.43,78.6,285,66.68,282.84Z"/><path class="cls-2" d="M109.77,795c-41.47.4-62.28.76-65.49,8.73-6,15,29,54.88,69.86,56.76,44.24,2.05,84.45-41.1,78.59-56.76C189.18,794.28,162.71,794.53,109.77,795Z"/><path class="cls-3" d="M133.33,801.22Q99,801.09,64.67,802c-5,.14-10.8-.36-13.75,4.53-2.49,4.13-1.24,9.13,1.14,13a37.4,37.4,0,0,0,22.07,16.25c8.15,2.21,11.63-10.42,3.49-12.63a24.21,24.21,0,0,1-9.71-5,25.87,25.87,0,0,1-3-3.06l2.72-.07,9.06-.22q9.42-.19,18.86-.33,18.87-.24,37.73-.16C141.76,814.35,141.77,801.25,133.33,801.22Z"/><path class="cls-4" d="M345.25,709.11c-31.12,27.19-35.23,62.39-21.5,77.37,10.34,11.26,33.27,13.78,43,4.29C379,778.79,372.22,745.69,345.25,709.11Z"/><path class="cls-3" d="M350.65,732c-1.79-2.78-5.84-4.33-8.83-2.31-5,3.39-9.89,6.9-13.32,12s-4.87,11.93-2.64,17.6a7,7,0,0,0,3,3.86,6.59,6.59,0,0,0,5,.65c3-1,5.82-4.57,4.5-7.93a12.41,12.41,0,0,1-.47-1.79,14.23,14.23,0,0,1,0-1.6c.1-.46.16-.92.3-1.37s.36-.88.48-1.33c0,.13-.06.22-.09.32l0-.07a24,24,0,0,1,1.28-2.13h0l.14-.16c.28-.34.58-.66.88-1,.61-.64,1.25-1.25,1.91-1.83.33-.3.67-.58,1-.86l.2-.16c1.43-1.05,2.89-2.07,4.36-3.07C351.12,738.91,352.62,735,350.65,732Z"/><path class="cls-3" d="M338.52,750.05c-.21.47-.33,1.17,0,0Z"/><path class="cls-4" d="M211.22,635.12c5.48,8.43,33.09,51,64,48,25.21-2.41,30.44-32.94,61.35-40,35.13-8,55.32,25.25,74.68,18.67,34.6-11.75,16.34-133.66,10.67-245.4-12.58-247.93,42.18-339.81-18.67-384.1C359.11.15,279.57,11.65,232.56,35c-35.45,17.57-40.54,36-96,64-52.1,26.32-66,19.37-85.35,40-35.88,38.23-40,117.29-5.34,149.37,41,37.92,105.13-18.5,144,13.34C250.11,351,135.15,518,211.22,635.12Z"/><path class="cls-5" d="M423.09,520.16q-3.66-46.39-7.33-92.78c-.41-5.1-8.41-5.14-8,0q3.17,40.14,6.34,80.28c2,25.7,4.69,51.5,4.33,77.31A217.24,217.24,0,0,1,415,622.64c-1.08,5.69-2,12-4.43,17.33s-7.24,5.6-12.38,4c-5.52-1.66-10.76-4.38-16.06-6.6a163.26,163.26,0,0,0-16.83-6.22c-11.14-3.3-22.66-4.33-34.11-2.08a66.21,66.21,0,0,0-32,16.53c-8.42,7.75-15.73,18-26.78,22.12-4.77,1.81-2.7,9.55,2.13,7.72,10.23-3.87,17.62-11.53,25.15-19.15,8-8.14,16.76-14.76,27.88-18.08,11.42-3.41,23.11-2.9,34.51.33a153.41,153.41,0,0,1,17.49,6.34c5.46,2.3,10.86,5.09,16.54,6.81,5.25,1.58,11.23,2,16-1.2,4.25-2.84,6.24-7.72,7.58-12.45a189.36,189.36,0,0,0,6.27-38.65C427.66,573,425.17,546.5,423.09,520.16Z"/><path class="cls-3" d="M402.06,38.4c-25-20.18-59.88-17.65-89.91-14.62C294.77,25.53,277.38,28.4,260.8,34c-16,5.43-30.66,13.61-44.5,23.23-13.53,9.4-26.3,19.83-39.71,29.39a296,296,0,0,1-45.81,26.7c-8,3.74-16.08,7-24.26,10.1-.42.09-.84.15-1.26.25a3.72,3.72,0,0,0-1.76.9c-6.62,2.51-13.26,5-19.86,7.58-14.56,5.76-28.06,13.38-37,26.67C36.35,174.25,32.28,194,31.16,212.23a140.88,140.88,0,0,0,8.56,57.38c1.78,4.78,9.52,2.71,7.72-2.13a134.54,134.54,0,0,1-8.51-49.28c.27-15.73,3-32.31,9.77-46.64A55.18,55.18,0,0,1,62.32,153c5.69-4.93,12.5-8.5,19.37-11.47,8.84-3.82,17.91-7,26.93-10.39,21.51-4.43,45.64,1.12,64.06-13.67,14.43-11.57,18.8-31.73,33.74-42.65a4.2,4.2,0,0,0,1.29-1.53l1.47-1.11C221.71,62.9,234.64,54,248.83,47.36c15.35-7.17,32-11.24,48.73-13.77,17.3-2.62,35.2-4.2,52.71-3.65,16.22.51,33.19,3.67,46.13,14.12C400.37,47.26,406.07,41.64,402.06,38.4Z"/><path class="cls-6" d="M343.51,93.53a27.81,27.81,0,0,0-15.16-17,4.4,4.4,0,0,0-3.08-.41A4.12,4.12,0,0,0,322.88,78a4.05,4.05,0,0,0-.41,3.08,3.89,3.89,0,0,0,1.84,2.4,22.53,22.53,0,0,1,4.3,2.38l.42.3c.31.25.62.5.92.77a22.72,22.72,0,0,1,1.71,1.69c.28.29.54.59.8.9l.26.32c.47.65.92,1.31,1.33,2s.78,1.4,1.12,2.13c.09.2.17.41.26.6l-.08-.18v0c.16.41.3.82.43,1.24a4,4,0,0,0,7.72-2.13Z"/><path class="cls-6" d="M335.35,94.38c-.11-.26-.38-.76,0,0Z"/><path class="cls-7" d="M198.21,217.2q-16.59,1.08-33.23,1.13c-5.14,0-5.15,8,0,8q16.64,0,33.23-1.13a4.09,4.09,0,0,0,4-4A4,4,0,0,0,198.21,217.2Z"/><path class="cls-7" d="M362.12,391.61q-3.44-11.12-7.86-21.87c-.79-1.93-2.69-3.52-4.92-2.8-1.86.6-3.65,2.85-2.8,4.92q4.44,10.75,7.86,21.88a4,4,0,0,0,7.72-2.13Z"/><path class="cls-8" d="M277.85,520a34,34,0,0,1-.94-23.05,4,4,0,0,0-2.8-4.92,4.09,4.09,0,0,0-4.92,2.8A42.42,42.42,0,0,0,270.94,524c.85,2,3.78,2.43,5.48,1.44C278.47,524.26,278.7,522,277.85,520Z"/><path class="cls-8" d="M355.05,172.14c-.82-.73-1.62-1.5-2.37-2.31l-1-1.17-.53-.66a2.09,2.09,0,0,1-.16-.22,35.11,35.11,0,0,1-3.38-5.69c-.11-.24-.22-.47-.32-.71l-.06-.12c-.19-.49-.37-1-.54-1.46a33,33,0,0,1-.94-3.18c-.14-.57-.26-1.14-.37-1.71,0-.16-.13-.8-.17-1-.14-1.12-.21-2.25-.24-3.37a4,4,0,0,0-8,0,38,38,0,0,0,12.45,27.25,4,4,0,1,0,5.66-5.66Z"/><path class="cls-8" d="M178.6,165.49l-35.54,1.68a4,4,0,0,0,0,8l35.54-1.68a4.09,4.09,0,0,0,4-4A4,4,0,0,0,178.6,165.49Z"/><path class="cls-8" d="M346.54,288.05a4.06,4.06,0,0,0-4.92-2.79,56.06,56.06,0,0,0-18,9.15,4.44,4.44,0,0,0-1.84,2.39,4.1,4.1,0,0,0,.41,3.08c1.05,1.63,3.7,2.8,5.47,1.43a54.58,54.58,0,0,1,8-5.09c.7-.36,1.41-.71,2.13-1l1.07-.47.43-.18c1.47-.59,3-1.1,4.48-1.56A4.05,4.05,0,0,0,346.54,288.05Z"/><path class="cls-6" d="M374.62,546.32c-1.49-1.36-4.22-1.71-5.66,0-1.29,1.53-2.59,3.06-4,4.52-.73.77-1.47,1.52-2.25,2.24-.34.32-.7.63-1.05.94l-.6.51-.37.29-.17.13-.63.44c-.42.29-.85.57-1.29.83s-.8.46-1.2.66l-.69.33,0,0a23.59,23.59,0,0,1-2.44.74,4,4,0,0,0-3.66-.82,4.1,4.1,0,0,0-2.79,4.93,5.27,5.27,0,0,0,4,3.83,10,10,0,0,0,4.54-.2,22.33,22.33,0,0,0,7.19-3.15c4.31-2.83,7.76-6.66,11.05-10.58C376,550.38,376.3,547.87,374.62,546.32Z"/><path class="cls-7" d="M267.3,412.77c-1.05-.55-2.09-1.13-3.08-1.78-.46-.3-.91-.62-1.35-.94l-.28-.23c-.23-.19-.46-.38-.67-.58q-.66-.58-1.26-1.23l-.59-.66c-.06-.07-.21-.29-.27-.37-.28-.41-.57-.82-.81-1.25-.15-.25-.29-.51-.42-.77,0-.09-.11-.28-.15-.4-.14-.39-.28-.78-.38-1.18-.05-.2-.08-.41-.13-.61a1,1,0,0,0,0-.12v0a13.55,13.55,0,0,1-.05-1.56l0-.63v0c.12-.5.21-1,.36-1.47,0-.11.06-.19.08-.25a5.08,5.08,0,0,1,.23-.47c.12-.22.26-.42.38-.64,0-.05,0,0,0-.07s.31-.36.48-.52.87-.75.11-.17c1.66-1.27,2.71-3.51,1.44-5.48-1.05-1.63-3.7-2.79-5.47-1.43a13.61,13.61,0,0,0-5.21,7.64,16.35,16.35,0,0,0,.29,8.88c2,6.08,7.15,10.41,12.68,13.27a4,4,0,1,0,4-6.91Z"/><path class="cls-8" d="M380.24,255.93a57.93,57.93,0,0,0-10-21.37c-1.25-1.67-3.51-2.7-5.47-1.44-1.65,1.06-2.78,3.69-1.44,5.48a55.48,55.48,0,0,1,5.78,9.54c.18.38.35.75.52,1.13l.23.53.06.15c.35.88.69,1.76,1,2.66a52.14,52.14,0,0,1,1.58,5.45,4,4,0,0,0,7.72-2.13Z"/><path class="cls-6" d="M118.22,206.39a4.11,4.11,0,0,0-2.39-1.84,4.06,4.06,0,0,0-3.09.4,4.7,4.7,0,0,0-1.83,2.39A47.84,47.84,0,0,0,107.52,222a4,4,0,0,0,4,4,4.1,4.1,0,0,0,4-4c0-.64.13-1.27.2-1.91a45.23,45.23,0,0,1,2.9-10.58A4,4,0,0,0,118.22,206.39Z"/><path class="cls-7" d="M264.91,130.21a4,4,0,1,0-7.72,2.12,198.86,198.86,0,0,1,5.18,26.81c.26,2.14,1.65,4,4,4,2,0,4.26-1.84,4-4A212.21,212.21,0,0,0,264.91,130.21Z"/><path class="cls-8" d="M294,266.69c-.63-1.92-2.82-3.57-4.93-2.8a21.26,21.26,0,0,1-2.72.81c-.42.09-.86.17-1.29.23h-.11l-.84.06a22.27,22.27,0,0,1-2.83,0l-.67-.06h-.09c-.5-.1-1-.17-1.48-.29a21.8,21.8,0,0,1-2.72-.82l-.23-.09-.51-.22c-.4-.19-.8-.39-1.19-.61a19.22,19.22,0,0,1-2.37-1.54l-.62-.53c-.41-.37-.81-.77-1.19-1.17a4,4,0,0,0-5.66,5.66,25.53,25.53,0,0,0,26.65,6.33C293.13,270.89,294.67,268.86,294,266.69Z"/><path class="cls-8" d="M384.07,489a45.14,45.14,0,0,0-27-11.84,4,4,0,0,0-4,4,4.11,4.11,0,0,0,4,4l1.42.14s.87.13,1.05.16c1,.18,2.08.4,3.1.66s2,.57,3,.91c.5.17,1,.35,1.49.54l.57.22.49.21a40.83,40.83,0,0,1,5.55,3c.71.47,1.87,1.29,2.29,1.61l.41.34c.21.16.41.33.61.51.45.38.89.78,1.33,1.18a4,4,0,0,0,5.66-5.66Z"/><path class="cls-6" d="M301.91,210.82a79.69,79.69,0,0,0-30.07,4.44,4.1,4.1,0,0,0-2.79,4.92A4,4,0,0,0,274,223a73.39,73.39,0,0,1,27.94-4.16,4,4,0,0,0,0-8Z"/><path class="cls-6" d="M292.71,364.84a76.63,76.63,0,0,1-12.11-7.59l-.1-.08a4.37,4.37,0,0,0-2.83-1.17,4.11,4.11,0,0,0-2.83,1.17,4,4,0,0,0-1.17,2.83,3.9,3.9,0,0,0,1.17,2.83,81.16,81.16,0,0,0,13.83,8.92,4.1,4.1,0,0,0,5.48-1.44C295.11,368.49,294.71,365.84,292.71,364.84Z"/><path class="cls-7" d="M267.37,577.82c-1.91-.44-4.59.58-4.93,2.79s-.76,4.58-1.32,6.84c-.27,1.11-.57,2.2-.92,3.29-.18.56-.37,1.13-.57,1.69-.1.28-.21.55-.31.83,0,0-.08.19-.13.31a28,28,0,0,1-3.1,5.43l-.21.26c-.18.22-.37.43-.56.64-.38.41-.78.82-1.2,1.2l-.51.45-.45.36-.38.26c-.29.2-.58.38-.88.56a4,4,0,1,0,4,6.91c9.33-5.68,12.67-16.7,14.22-26.9C270.47,580.68,269.64,578.34,267.37,577.82Z"/></g></g></svg>