<?xml version="1.0" encoding="UTF-8"?>
<svg id="Layer_2" data-name="Layer 2" xmlns="http://www.w3.org/2000/svg" viewBox="0 0 361.49 952.28">
  <defs>
    <style>
      .cls-1 {
        fill: #6b111e;
      }

      .cls-2 {
        fill: #9e192c;
      }

      .cls-3 {
        fill: #c3afa5;
        stroke: #4f4743;
        stroke-miterlimit: 10;
        stroke-width: 15px;
      }
    </style>
  </defs>
  <g id="Layer_1-2" data-name="Layer 1">
    <path class="cls-1" d="m75.29,946.31c-9.15-3.18-50.35-17.48-67.88-60.31-15.32-37.45-2.59-72.36.18-79.97,9.39-25.74,22.77-32.84,40.55-54.37,37.18-45.02,47.49-97.36,58.05-150.92,11.67-59.22,13.46-108.15,13.46-108.15.71-19.45.78-47.38,12.91-80.88,5.7-15.74,10.84-29.64,23.34-38.81,25.13-18.43,60.96-5.69,71.22-2.04,90.29,32.11,193.55,303.18,90.06,460.83-41.65,63.44-111.28,92.12-126.44,98.65-35.4,15.26-72.88,30.74-115.45,15.96Z"/>
    <path class="cls-3" d="m89.08,688.91c5.49.04,9.2-14.18,16.39-42.62,9.11-36.03,14.63-58.57,6.84-63.86-5.63-3.83-15.58,3.16-18.39,5.13-25.01,17.56-20.35,60.14-19.76,65.02,1.84,15.01,8.08,36.27,14.92,36.33Z"/>
    <path class="cls-1" d="m179.66,630.6c-9.07,1.95-64.55,14.71-99.56-17.92-5.21-4.86-18.12-18.31-24.27-44.84-19.1-82.42,63.73-132.79,75.58-219.51C149.73,214.12-20.47,128.36,18.36,48.59,35.08,14.23,80.69,1.09,109.46.07c126.25-4.47,272.03,201.51,249.76,379.37-10.68,85.27-58.02,148.46-73.26,168.32-27.08,35.31-56.11,72.05-106.3,82.84Z"/>
    <path class="cls-3" d="m142.93,352.74c5.48-3.17,1.6-18.94-6.37-50.33-10.1-39.78-16.61-64.56-27.16-65.05-7.63-.36-13.81,12.14-15.56,15.67-15.53,31.43,11.74,69.4,14.94,73.72,9.81,13.27,27.32,29.95,34.15,25.99Z"/>
    <path class="cls-2" d="m222.41,87.21c-45.94-36.94-114.08-67.88-126.62-52.72-18.53,22.41,118.71,104.17,147.66,264.3,17.72,98.03-12.43,185.09,12.31,193.2,18.23,5.98,46.91-37.26,50.49-42.65,36.41-54.9,29.9-116.45,25.77-150.93-3.3-27.49-16.34-136.21-109.6-211.2Z"/>
    <path class="cls-2" d="m246.2,644.08c9.44-24.78,32.53-51.85,45.24-47.76,27.89,8.98,41.35,179.26-52.78,241.29-32.8,21.62-68.8,23.58-90.49,22.62-2.37-9.46-4.61-24.2,0-40.22,14.61-50.76,79.44-49.82,95.51-98.03,9.98-29.94-10.89-42.74,2.51-77.92Z"/>
  </g>
</svg>