<svg xmlns="http://www.w3.org/2000/svg" viewBox="0 0 630.74 990.34"><g id="Layer_2" data-name="Layer 2"><g id="Layer_1-2" data-name="Layer 1"><path d="M127.56,242.3H31.41Q57.69,125.65,132.05,62.82T307.68,0q73.69,0,137.49,33.65t98.71,90.7q34.93,57.06,34.94,119.23,0,121.78-121.15,192.94,67.94,27.57,111.53,80.76,61.54,75,61.54,167.94,0,80.14-42.31,152.88T473.05,950.6Q400,990.34,309.6,990.34q-121.8,0-203.19-70.19T0,714.07H92.3q24.36,91.66,69.87,132.68,58.32,51.93,148.71,51.93,102.56,0,164.74-61.54T537.8,692.92q0-55.12-31.09-103.2a195.94,195.94,0,0,0-83.33-72.44q-52.26-24.34-161.85-30.12V400.62q64.73,0,117.94-22.75t77.24-58q24-35.25,24-76.92,0-61.55-49-106.41t-124-44.87q-60.92,0-105.13,34.3T127.56,242.3Z"/></g></g></svg>