<?xml version="1.0" encoding="UTF-8"?>
<svg id="Layer_2" data-name="Layer 2" xmlns="http://www.w3.org/2000/svg" viewBox="0 0 945.61 910.14">
  <defs>
    <style>
      .cls-1 {
        fill: #ebb85c;
      }

      .cls-2 {
        fill: #ffc864;
      }
    </style>
  </defs>
  <g id="Layer_1-2" data-name="Layer 1">
    <g>
      <path class="cls-2" d="m425.48,434.67c12.65-.53,39.09-1.64,73.84.14-24.98-1.52-49.73-1.56-73.84-.14Z"/>
      <path class="cls-1" d="m915.5,673.95c34.26,78.4,27.52,153.96,19.22,198.63,7.88-28.29,19.89-87.24.13-157.49-19.71-70.07-60.59-114.23-82.13-136.97-107.06-113.02-260.15-138.54-353.4-143.31,169.8,10.3,350.44,88.69,416.18,239.14Z"/>
      <path class="cls-2" d="m507.43,568.97c-200.43-17.58-322.24,142.76-329.88,153.19-17.82-7.36-35.64-14.72-53.46-22.07-41.37,49.31-82.73,98.62-124.1,147.92.31,1.54.8,3.69,1.55,6.21l96.25,24.41c1.89-1.38,3.75-2.84,5.56-4.41,33.71-46.45,67.41-92.89,101.12-139.34,15.89-7.05,41.16-17.87,72.79-29.61,130.59-48.47,205.96-76.45,285.54-51.03,44.13,14.1,76.33,40.39,112.46,69.91,40.08,32.74,55.38,55.57,107.4,101.38,32.54,28.66,60.81,49.88,78.99,62.95-41.02-175.09-188.48-304.98-354.22-319.51Z"/>
      <path class="cls-2" d="m122.59,590.68c12.14-35.34,34.2-56.7,46.29-68.12-20.3,18.18-36.98,40.56-46.29,68.12Z"/>
      <path class="cls-2" d="m861.66,888.48c24.35-5.3,48.7-10.6,73.06-15.9,0,0,0,0,0,0,0,0,0,0,0,0-24.35,5.3-48.7,10.6-73.06,15.9Z"/>
      <path class="cls-1" d="m425.48,434.67s-.07,0-.11,0c-21.91.92-172.67,8.82-256.42,87.83-.02.02-.05.05-.07.07,53.8-48.19,132.91-66.98,167.12-75.1,28.19-6.69,58.3-10.97,89.48-12.8Z"/>
      <path class="cls-1" d="m121.33,594.49s.02-.05.02-.07c0,.02-.02.05-.02.07-14.42,45.89-3.4,87.25,2.77,105.6-8.07-26.25-15.25-65.08-2.77-105.6Z"/>
      <path class="cls-1" d="m122.59,590.68c-.42,1.24-.84,2.48-1.23,3.74,0,.02-.02.05-.02.07-12.48,40.52-5.3,79.35,2.77,105.6,17.82,7.36,35.64,14.72,53.46,22.07,7.64-10.43,129.45-170.77,329.88-153.19,165.74,14.54,313.2,144.42,354.22,319.51,24.35-5.3,48.7-10.6,73.06-15.9,0,0,0,0,0,0,8.31-44.67,15.04-120.23-19.22-198.63-65.74-150.45-246.38-228.84-416.18-239.14-34.75-1.78-61.19-.67-73.84-.14-31.18,1.83-61.29,6.11-89.48,12.8-34.21,8.12-113.32,26.91-167.12,75.1-12.09,11.41-34.15,32.78-46.29,68.12Z"/>
      <path class="cls-1" d="m121.35,594.42c.39-1.26.81-2.5,1.23-3.74-.42,1.23-.84,2.47-1.23,3.74Z"/>
      <path class="cls-1" d="m21.43,883.53c20.11,14.57,51.35,13.33,76.37-4.9L1.55,854.22c2.49,8.28,7.93,20.65,19.88,29.31Z"/>
      <polygon class="cls-1" points="177.55 722.16 49.68 866.43 1.55 854.22 0 848.01 124.1 700.09 177.55 722.16"/>
    </g>
    <g>
      <path class="cls-2" d="m511.14,516c1.52-12.18,4.68-37.64,5.65-71.23-.46,24.16-2.36,48.03-5.65,71.23Z"/>
      <path class="cls-1" d="m313.44,33.96C238.76-2.16,163.66,1.36,118.92,7.62c28.54-6.49,87.66-15.76,155.43,6.06,67.61,21.77,107.97,62.93,128.73,84.6,103.14,107.71,116.32,256.36,113.71,346.49,3.15-164.18-60.04-341.5-203.35-410.81Z"/>
      <path class="cls-2" d="m385.03,431.67c1.63,194.01-166.16,305.2-177.06,312.16,5.86,17.48,11.73,34.95,17.59,52.43-51.9,37.96-103.81,75.92-155.71,113.88-1.5-.36-3.58-.91-6.01-1.74l-16.54-93.79c1.51-1.77,3.09-3.5,4.79-5.19,48.48-30.68,96.96-61.37,145.44-92.05,8.21-15.05,20.86-39,34.93-69.05,58.08-124.05,91.61-195.65,72.76-273.4-10.45-43.12-33.88-75.21-60.17-111.22-29.16-39.95-50.5-55.6-91.63-107.57-25.73-32.52-44.46-60.61-55.93-78.67,169.57,46.45,286.18,193.78,287.53,354.22Z"/>
      <path class="cls-2" d="m333.41,802.01c35.83-10.32,58.64-30.76,70.85-41.98-19.53,18.86-42.93,34.07-70.85,41.98Z"/>
      <path class="cls-2" d="m97.5,77.46c7.14-23.28,14.28-46.56,21.42-69.84,0,0,0,0,0,0,0,0,0,0,0,0-7.14,23.28-14.28,46.56-21.42,69.84Z"/>
      <path class="cls-1" d="m511.14,516s0,.07-.01.11c-2.63,21.1-22.24,166.2-106.79,243.87-.02.02-.05.04-.07.07,51.77-50,76.52-125.57,87.22-158.24,8.82-26.92,15.4-55.8,19.65-85.8Z"/>
      <path class="cls-1" d="m329.56,803.08s.05-.01.07-.02c-.02,0-.05.01-.07.02-46.41,12.1-86.37-.15-103.99-6.82,25.27,8.82,63.03,17.26,103.99,6.82Z"/>
      <path class="cls-1" d="m333.41,802.01c-1.26.36-2.51.72-3.78,1.04-.02,0-.05.01-.07.02-40.96,10.44-78.72,2-103.99-6.82-5.86-17.48-11.73-34.95-17.59-52.43,10.89-6.96,178.68-118.14,177.06-312.16-1.35-160.43-117.96-307.77-287.53-354.22,7.14-23.28,14.28-46.56,21.42-69.84,0,0,0,0,0,0,44.74-6.26,119.83-9.78,194.52,26.34,143.31,69.32,206.5,246.63,203.35,410.81-.97,33.59-4.14,59.04-5.65,71.23-4.26,30-10.84,58.88-19.65,85.8-10.7,32.67-35.45,108.24-87.22,158.24-12.21,11.22-35.03,31.65-70.85,41.98Z"/>
      <path class="cls-1" d="m329.63,803.06c1.27-.33,2.53-.69,3.78-1.04-1.25.36-2.51.71-3.78,1.04Z"/>
      <path class="cls-1" d="m36.48,888.07c-12.81-19.97-9.13-50.05,10.82-73.47l16.54,93.79c-7.98-2.72-19.76-8.46-27.37-20.32Z"/>
      <polygon class="cls-1" points="207.97 743.83 55.57 861.5 63.84 908.39 69.85 910.14 225.56 796.26 207.97 743.83"/>
    </g>
  </g>
</svg>