<svg id="Layer_1" data-name="Layer 1" xmlns="http://www.w3.org/2000/svg" xmlns:xlink="http://www.w3.org/1999/xlink" viewBox="0 0 26 26"><defs><style>.cls-1{fill:url(#linear-gradient);}.cls-2{fill:url(#radial-gradient);}.cls-3{fill:url(#radial-gradient-2);}.cls-4{fill:url(#radial-gradient-3);}.cls-11,.cls-5,.cls-7,.cls-9{fill:none;}.cls-11,.cls-5{stroke-width:0.3px;}.cls-5{stroke:url(#linear-gradient-2);}.cls-6{fill:url(#radial-gradient-4);}.cls-7,.cls-9{stroke-width:0.2px;}.cls-7{stroke:url(#linear-gradient-3);}.cls-8{fill:url(#radial-gradient-5);}.cls-9{stroke:url(#linear-gradient-4);}.cls-10{fill:url(#radial-gradient-6);}.cls-11{stroke:url(#linear-gradient-5);}.cls-12{fill:url(#radial-gradient-7);}</style><linearGradient id="linear-gradient" x1="22.76" y1="19.46" x2="8.18" y2="4.73" gradientTransform="matrix(1, 0, 0, -1, 0, 28)" gradientUnits="userSpaceOnUse"><stop offset="0" stop-color="#ffd874"/><stop offset="1" stop-color="#ffbc4c"/></linearGradient><radialGradient id="radial-gradient" cx="-477.72" cy="477.12" r="1" gradientTransform="matrix(11.73, -5.08, -5.32, -12.3, 8155.52, 3454.06)" gradientUnits="userSpaceOnUse"><stop offset="0.77" stop-color="#ffecae" stop-opacity="0"/><stop offset="0.98" stop-color="#ffecae"/></radialGradient><radialGradient id="radial-gradient-2" cx="-492.44" cy="467.22" r="1" gradientTransform="matrix(8.74, -7.29, -7.65, -9.16, 7884.19, 713.95)" gradientUnits="userSpaceOnUse"><stop offset="0" stop-color="#ff984f"/><stop offset="1" stop-color="#ff984f" stop-opacity="0"/></radialGradient><radialGradient id="radial-gradient-3" cx="-216.41" cy="458.2" r="1" gradientTransform="matrix(2.08, 0.5, 1.27, -5.26, -116.68, 2526.38)" gradientUnits="userSpaceOnUse"><stop offset="0.23" stop-color="#ba935b"/><stop offset="0.98" stop-color="#ba935b" stop-opacity="0"/></radialGradient><linearGradient id="linear-gradient-2" x1="12.1" y1="7.93" x2="10.65" y2="7.17" gradientTransform="matrix(1, 0, 0, -1, 0, 28)" gradientUnits="userSpaceOnUse"><stop offset="0" stop-color="#d0883b"/><stop offset="1" stop-color="#ffca6d"/></linearGradient><radialGradient id="radial-gradient-4" cx="-364.24" cy="195.29" r="1" gradientTransform="matrix(1.82, -0.77, -0.77, -1.82, 822.94, 95.14)" gradientUnits="userSpaceOnUse"><stop offset="0" stop-color="#ffba6a"/><stop offset="1" stop-color="#eb9e58"/></radialGradient><linearGradient id="linear-gradient-3" x1="22.5" y1="18.92" x2="20.51" y2="16.78" gradientTransform="matrix(1, 0, 0, -1, 0, 28)" gradientUnits="userSpaceOnUse"><stop offset="0" stop-color="#e7ac47"/><stop offset="1" stop-color="#ffe9a7"/></linearGradient><radialGradient id="radial-gradient-5" cx="-314.27" cy="200.98" r="1" gradientTransform="matrix(1.82, -0.5, -0.5, -1.82, 693.57, 217.1)" gradientUnits="userSpaceOnUse"><stop offset="0" stop-color="#ffd778"/><stop offset="1" stop-color="#ffc767"/></radialGradient><linearGradient id="linear-gradient-4" x1="22.52" y1="14.1" x2="21.26" y2="12.75" xlink:href="#linear-gradient-3"/><radialGradient id="radial-gradient-6" cx="-206.63" cy="10.57" r="1" gradientTransform="matrix(1.15, -0.32, -0.32, -1.15, 261.7, -38.9)" gradientUnits="userSpaceOnUse"><stop offset="0" stop-color="#ffde8f"/><stop offset="1" stop-color="#ffc25b"/></radialGradient><linearGradient id="linear-gradient-5" x1="19.98" y1="11.28" x2="17.21" y2="9.83" gradientTransform="matrix(1, 0, 0, -1, 0, 28)" gradientUnits="userSpaceOnUse"><stop offset="0" stop-color="#e2a842"/><stop offset="1" stop-color="#ffd778"/></linearGradient><radialGradient id="radial-gradient-7" cx="-428" cy="352.93" r="1" gradientTransform="matrix(3.47, -1.47, -1.47, -3.47, 2022.96, 613.76)" gradientUnits="userSpaceOnUse"><stop offset="0" stop-color="#ffc75f"/><stop offset="1" stop-color="#fabc5a"/></radialGradient></defs><path class="cls-1" d="M19.1,4.58a11.32,11.32,0,0,1-8.94,13.84,11.22,11.22,0,0,1-6.57-.75.53.53,0,0,0-.65.76A11.37,11.37,0,1,0,19.93,4a.53.53,0,0,0-.83.54Z"/><path class="cls-2" d="M19.1,4.58a11.32,11.32,0,0,1-8.94,13.84,11.22,11.22,0,0,1-6.57-.75.53.53,0,0,0-.65.76A11.37,11.37,0,1,0,19.93,4a.53.53,0,0,0-.83.54Z"/><path class="cls-3" d="M19.1,4.58a11.32,11.32,0,0,1-8.94,13.84,11.22,11.22,0,0,1-6.57-.75.53.53,0,0,0-.65.76A11.37,11.37,0,1,0,19.93,4a.53.53,0,0,0-.83.54Z"/><path class="cls-4" d="M19.1,4.58a11.32,11.32,0,0,1-8.94,13.84,11.22,11.22,0,0,1-6.57-.75.53.53,0,0,0-.65.76A11.37,11.37,0,1,0,19.93,4a.53.53,0,0,0-.83.54Z"/><path class="cls-5" d="M11,22a1.26,1.26,0,0,0,.9-.38,1.26,1.26,0,0,0,0-1.8,1.25,1.25,0,0,0-.9-.37A1.28,1.28,0,0,0,11,22Z"/><path class="cls-6" d="M11,22a1.26,1.26,0,0,0,.9-.38,1.26,1.26,0,0,0,0-1.8,1.25,1.25,0,0,0-.9-.37A1.28,1.28,0,0,0,11,22Z"/><path class="cls-7" d="M21.45,11.48a1.28,1.28,0,0,0,1.28-1.27,1.28,1.28,0,0,0-2.56,0,1.28,1.28,0,0,0,1.28,1.27Z"/><path class="cls-8" d="M21.45,11.48a1.28,1.28,0,0,0,1.28-1.27,1.28,1.28,0,0,0-2.56,0,1.28,1.28,0,0,0,1.28,1.27Z"/><path class="cls-9" d="M21.86,15.41A.8.8,0,1,0,21.29,14a.8.8,0,0,0,0,1.14A.79.79,0,0,0,21.86,15.41Z"/><path class="cls-10" d="M21.86,15.41A.8.8,0,1,0,21.29,14a.8.8,0,0,0,0,1.14A.79.79,0,0,0,21.86,15.41Z"/><path class="cls-11" d="M17.79,20.3a2.54,2.54,0,0,0,.94-.19,2.44,2.44,0,0,0,.79-.53,2.55,2.55,0,0,0,.53-.79,2.49,2.49,0,0,0,0-1.86,2.55,2.55,0,0,0-.53-.79,2.44,2.44,0,0,0-.79-.53,2.54,2.54,0,0,0-.94-.19,2.44,2.44,0,0,0-1.72.72,2.44,2.44,0,0,0,0,3.44,2.44,2.44,0,0,0,1.72.72Z"/><path class="cls-12" d="M17.79,20.3a2.54,2.54,0,0,0,.94-.19,2.44,2.44,0,0,0,.79-.53,2.55,2.55,0,0,0,.53-.79,2.49,2.49,0,0,0,0-1.86,2.55,2.55,0,0,0-.53-.79,2.44,2.44,0,0,0-.79-.53,2.54,2.54,0,0,0-.94-.19,2.44,2.44,0,0,0-1.72.72,2.44,2.44,0,0,0,0,3.44,2.44,2.44,0,0,0,1.72.72Z"/></svg>