<svg id="Layer_1" data-name="Layer 1" xmlns="http://www.w3.org/2000/svg" viewBox="0 0 500 500"><defs><style>.cls-1{fill:#d3ba97;}.cls-2{fill:#995f1a;}.cls-3{fill:#bc1d1d;}</style></defs><path class="cls-1" d="M140.06,24.36C122.46,47.3,98.17,86.24,97.51,135.13c-1.24,92.76,83.75,135.44,78.67,216.73-1.82,29.07-15.77,73-81.07,124.42H413c32.77-59.07,35.56-104.68,32.91-134-8.51-94.39-83.36-133.9-78.66-216.73,2.59-45.69,28-80.94,45.75-101.14Z"/><path class="cls-2" d="M170.56,96.16c11-.29,22.05-1.09,33-2.42q8.37-1,16.68-2.39c5.35-.9,10.66-2,16-2.9A55.89,55.89,0,0,1,252,88a91.18,91.18,0,0,1,14.65,3.37c4.91,1.45,9.79,3.05,14.75,4.32a101.32,101.32,0,0,0,15.75,2.72,99.8,99.8,0,0,0,35.25-3.08c3.11-.84,1.79-5.67-1.33-4.82a95.57,95.57,0,0,1-30.67,3.15A92.55,92.55,0,0,1,285,91.4c-4.92-1.15-9.73-2.69-14.57-4.15-10.06-3-20.18-5.47-30.76-4.28-5.43.62-10.77,1.78-16.15,2.76s-10.68,1.81-16.05,2.52a352.81,352.81,0,0,1-36.89,2.91c-3.21.09-3.22,5.09,0,5Z"/><path class="cls-2" d="M133,151.5a100.1,100.1,0,0,0,35.72,2c5.93-.67,11.83-1.56,17.78-2a110.38,110.38,0,0,1,18.18.26c12.08,1.08,24,3.41,36.11,4.45a333.37,333.37,0,0,0,36.86.89c13.8-.36,27.58-1.3,41.35-2.25a2.57,2.57,0,0,0,2.5-2.5,2.51,2.51,0,0,0-2.5-2.5c-24.38,1.68-48.87,3.37-73.31,1.73-12.06-.81-23.94-2.89-35.93-4.29a131.28,131.28,0,0,0-17.94-1.05A171.72,171.72,0,0,0,174,147.89a137,137,0,0,1-20.13,1.44,88.82,88.82,0,0,1-19.54-2.65c-3.13-.78-4.46,4-1.33,4.82Z"/><path class="cls-2" d="M210.65,202.45q25.48-3.45,51.22-4.71t51.61-.4q14.49.49,29,1.68a2.53,2.53,0,0,0,2.5-2.5,2.55,2.55,0,0,0-2.5-2.5q-25.86-2.1-51.82-2t-52.05,2.36q-14.67,1.29-29.25,3.29c-1.34.18-2.07,1.89-1.75,3.07a2.58,2.58,0,0,0,3.08,1.75Z"/><path class="cls-2" d="M183.56,264.91l66.7-8.78c5.17-.67,10.28-1.2,15.33.43,4.78,1.55,9.2,4,14,5.69,9.59,3.34,19.77,4.72,29.88,5.08,11.42.4,22.84-.51,34.21-1.47a2.56,2.56,0,0,0,2.5-2.5,2.53,2.53,0,0,0-2.5-2.5c-19.9,1.68-40.63,3.43-60-2.53-4.77-1.47-9.2-3.63-13.8-5.51a31.86,31.86,0,0,0-15.51-2.17c-5.54.54-11.07,1.41-16.59,2.13L221,255l-37.42,4.92a2.58,2.58,0,0,0-2.5,2.5c0,1.21,1.16,2.68,2.5,2.5Z"/><path class="cls-2" d="M274.77,312.64c9.69,8.87,23.43,9.58,35.9,9.48,15.84-.12,31.68-.38,47.52-.58l27.49-.33c3.21,0,3.22-5,0-5l-47.48.58-23.49.29c-6.2.07-12.47.22-18.63-.62-6.44-.87-12.9-2.89-17.77-7.35-2.37-2.17-5.92,1.36-3.54,3.53Z"/><path class="cls-2" d="M198.72,373.37c11.93-1.14,24.08-2.34,36-.74a127.41,127.41,0,0,1,17.54,4.17,127.09,127.09,0,0,0,17.35,3.76c12.11,1.65,24.32,1.6,36.51,1.47s24.46-.27,36.68-.88A307.93,307.93,0,0,0,384,376.63a2.5,2.5,0,0,0-1.33-4.82c-23.94,4.45-48.37,4.89-72.64,5.17-12,.14-24,.4-35.93-.87a111.87,111.87,0,0,1-17.49-3.3c-5.79-1.57-11.51-3.43-17.42-4.5-13.41-2.43-27-1.23-40.49.06a2.55,2.55,0,0,0-2.5,2.5,2.52,2.52,0,0,0,2.5,2.5Z"/><path class="cls-2" d="M258.19,429.26l24.35-2.64c8.1-.88,16.2-1.87,24.32-2.52a113.1,113.1,0,0,1,23.7.32c7.51,1,14.9,2.7,22.35,4.07,8.42,1.56,17,2.73,25.56,2.11a2.55,2.55,0,0,0,2.5-2.5,2.53,2.53,0,0,0-2.5-2.5c-15.41,1.12-30.29-3.66-45.4-5.84a113,113,0,0,0-23.75-.84c-8,.54-16.06,1.54-24.07,2.41l-27.06,2.93a2.57,2.57,0,0,0-2.5,2.5,2.51,2.51,0,0,0,2.5,2.5Z"/><path class="cls-3" d="M195.74,111.56a649.06,649.06,0,0,0-22.37,64.57,658.05,658.05,0,0,0-18.49,84.65,227.4,227.4,0,0,1-17.26,18.69A226.32,226.32,0,0,1,96.47,311L68,322.13,154.24,451.4l35.88-34.3q26.4-19.68,52.81-39.35a299.34,299.34,0,0,0,42-4.41,301.2,301.2,0,0,0,114.79-46.55l-59.31-9.18-22.93-40.2c-4.95-13-11.63-29.32-19.95-46.59,0,0-3.09-6.42-17.19-28.91a38.28,38.28,0,0,0-7.43-8.93A36.44,36.44,0,0,0,261,186a82.29,82.29,0,0,0,15.72-20,84.66,84.66,0,0,0,7.6-18.33,109.2,109.2,0,0,0,3.16,21.51,112,112,0,0,0,6.91,19.61,83.77,83.77,0,0,0,25,26.08A72.28,72.28,0,0,0,333.08,210,73.48,73.48,0,0,0,358,190.37L315.13,96.65A552.06,552.06,0,0,0,252,101.2,544.09,544.09,0,0,0,195.74,111.56Z"/><path class="cls-3" d="M324.8,93.91l54.79-7.67a64.17,64.17,0,0,1,11.46,13.5c10.38,16.39,10.33,33.07,9.86,40.2l-26.92,5L345.73,141Z"/><path class="cls-3" d="M352.15,155.43l21.3-5.47,31,2.93,9.8,26.18-7.66,30.33-81.11,10.73a77.81,77.81,0,0,0,42.82-30.87Z"/><path class="cls-3" d="M304.25,230.76l60.22-8.33,44.19-2.5,6,10.46,6.33,11-7,22.76-20.88,4.46L321,265.34Q312.61,248,304.25,230.76Z"/><path class="cls-3" d="M326.23,275.14,362.62,273l52.16,5.88-.57,32.34-10.86,8.63L345.87,309Z"/></svg>