<svg xmlns="http://www.w3.org/2000/svg" viewBox="0 0 433.06 445.18"><defs><style>.cls-1{fill:#bf2121;stroke:#fff;stroke-miterlimit:10;stroke-width:20px;}</style></defs><g id="Layer_2" data-name="Layer 2"><g id="Layer_1-2" data-name="Layer 1"><path class="cls-1" d="M419.05,180.09l-3.16-5.48-3.16-5.48-1.8-3.11-1.43-2.47,5.92-23.38a30.05,30.05,0,0,0-1-17.87l-9.8-26.18A29.37,29.37,0,0,0,403,92.56a96.17,96.17,0,0,0-14.6-55,94.24,94.24,0,0,0-16.82-19.94,30,30,0,0,0-20-7.64,30.51,30.51,0,0,0-4.16.29L292.64,18a30,30,0,0,0-8.5,2.5A576.38,576.38,0,0,0,160.76,36.15,30,30,0,0,0,140,54a679.81,679.81,0,0,0-23.41,67.55,692.61,692.61,0,0,0-18,79.9c-3.15,3.53-6.43,6.94-9.8,10.2a197.26,197.26,0,0,1-33.64,26.1l-11.8,4.62L29.09,248a30,30,0,0,0-17,38.86A29.17,29.17,0,0,0,15,292.54l86.26,129.27a30,30,0,0,0,45.74,5L165,409.7l16.61-15.88,44-32.8a327.16,327.16,0,0,0,36.65-4.38A330,330,0,0,0,388.39,305.5a29.9,29.9,0,0,0,10.53-12.28l.52-.41,5.43-4.32a30,30,0,0,0,11.33-23l.29-16.18.28-16.17a29.8,29.8,0,0,0-1.23-9l2.73-8.9,3.48-11.38A30.05,30.05,0,0,0,419.05,180.09Z"/></g></g></svg>