<svg xmlns="http://www.w3.org/2000/svg" viewBox="0 0 413.04 425.19">
    <defs>
        <style>.cls-1{fill:#bf2121;}</style>
    </defs>
    <g id="Layer_2" data-name="Layer 2">
        <g id="Layer_1-2" data-name="Layer 1">
            <g id="Layer_2-2" data-name="Layer 2">
                <g id="Layer_1-2-2" data-name="Layer 1-2">
                    <path class="cls-1" d="M409,170.11l-3.16-5.48-3.16-5.48-1.8-3.11-1.43-2.47,5.92-23.38a30.05,30.05,0,0,0-1-17.87l-9.8-26.18A29.23,29.23,0,0,0,393,82.58a96.21,96.21,0,0,0-14.6-55A94.49,94.49,0,0,0,361.56,7.64a30,30,0,0,0-20-7.64,30.51,30.51,0,0,0-4.16.29L282.62,8a30,30,0,0,0-8.5,2.5A576.38,576.38,0,0,0,150.74,26.17,30,30,0,0,0,130,44a679.81,679.81,0,0,0-23.41,67.55,692.61,692.61,0,0,0-18,79.9c-3.15,3.53-6.43,6.94-9.8,10.2a197.26,197.26,0,0,1-33.64,26.1l-11.8,4.62L19.07,238a30,30,0,0,0-17,38.86A29,29,0,0,0,5,282.56L91.24,411.83a30,30,0,0,0,41.6,8.32,29.38,29.38,0,0,0,4.14-3.32l18-17.11,16.61-15.88,44-32.8a327.16,327.16,0,0,0,36.65-4.38,330,330,0,0,0,126.13-51.14,30,30,0,0,0,10.53-12.28l.52-.41,5.43-4.32a30,30,0,0,0,11.33-23l.29-16.18.28-16.17a29.78,29.78,0,0,0-1.23-9l2.73-8.9,3.48-11.38A30,30,0,0,0,409,170.11Z"/>
                </g>
            </g>
        </g>
    </g>
</svg>