<svg xmlns="http://www.w3.org/2000/svg" viewBox="0 0 433.06 445.18">
	<defs>
		<style>
			.cls-1 {
				fill: #bf2121;
			}
		</style>
    </defs>
	<g id="Layer_2" data-name="Layer 2">
		<g id="Layer_1-2" data-name="Layer 1">
			<g id="Layer_2-2" data-name="Layer 2">
				<g id="Layer_1-2-2" data-name="Layer 1-2">
					<path
						class="cls-1"
						d="M358.13,25a6.42,6.42,0,0,1,4.27,1.62A73.52,73.52,0,0,1,375.56,42.2a75.23,75.23,0,0,1,11.49,43.24,25,25,0,0,0,3,12.88,5.93,5.93,0,0,1,.31.68l10.26,27.38a6.39,6.39,0,0,1,.23,3.79l-6.21,24.47a25,25,0,0,0,2.61,18.69l1.49,2.58,1.87,3.22,3.31,5.74,3.31,5.73a6.39,6.39,0,0,1,.58,5.07l-3.64,11.9-2.86,9.32a25,25,0,0,0-.07,14.47,6.15,6.15,0,0,1,.26,1.86l-.29,16.91-.31,17a6.39,6.39,0,0,1-2.43,4.91l-5.64,4.48-.52.4a25.07,25.07,0,0,0-7.2,9.1,6.29,6.29,0,0,1-2.23,2.59l-.1.07a319.33,319.33,0,0,1-122.69,49.68,319.73,319.73,0,0,1-35.58,4.24,24.94,24.94,0,0,0-13.37,4.9L165,381.83a25.93,25.93,0,0,0-2.34,2l-17.36,16.58-18.87,17.91-.09.09a7.49,7.49,0,0,1-.89.71,6.38,6.38,0,0,1-3.57,1.09,6.54,6.54,0,0,1-5.41-2.88L26.06,282a5.37,5.37,0,0,1-.53-1,1.8,1.8,0,0,1-.08-.21,6.26,6.26,0,0,1,.09-4.88,6.35,6.35,0,0,1,3.56-3.41l.06,0,14.91-5.88,12.35-4.83a26,26,0,0,0,4-2A232.86,232.86,0,0,0,100,229.13c4-3.85,7.87-7.89,11.54-12a25,25,0,0,0,6-12.61,703,703,0,0,1,18.22-80.76,685.92,685.92,0,0,1,23.68-68.23,6.46,6.46,0,0,1,4.45-3.82,581.23,581.23,0,0,1,124-15.7,25,25,0,0,0,10.05-2.31,6.5,6.5,0,0,1,1.84-.54h.06l57.38-8.08a6,6,0,0,1,.94-.07m0-25a32,32,0,0,0-4.37.3L296.32,8.4A31.39,31.39,0,0,0,287.41,11,605.61,605.61,0,0,0,158.05,27.4a31.43,31.43,0,0,0-21.77,18.69,713,713,0,0,0-24.55,70.72,725.57,725.57,0,0,0-18.87,83.66c-3.3,3.7-6.74,7.27-10.27,10.68a207.06,207.06,0,0,1-35.27,27.33l-12.38,4.83L20,249.21A31.39,31.39,0,0,0,2.17,289.9a30.31,30.31,0,0,0,3.05,5.94L95.66,431.19a31.47,31.47,0,0,0,43.62,8.71,30.93,30.93,0,0,0,4.34-3.48l18.87-17.91,17.42-16.63L226,367.54A344.88,344.88,0,0,0,264.47,363a346.37,346.37,0,0,0,132.24-53.55,31.34,31.34,0,0,0,11-12.86l.55-.43L414,291.6a31.38,31.38,0,0,0,11.88-24.08l.3-16.94.3-16.93a31.24,31.24,0,0,0-1.29-9.42l2.86-9.32L431.69,203a31.44,31.44,0,0,0-2.83-24.88l-3.32-5.74-3.31-5.74-1.89-3.26-1.5-2.58,6.21-24.48A31.39,31.39,0,0,0,424,117.6L413.73,90.19a32.11,32.11,0,0,0-1.7-3.73,100.59,100.59,0,0,0-15.31-57.58A98.76,98.76,0,0,0,379.09,8a31.51,31.51,0,0,0-21-8Z" />
				</g>
			</g>
		</g>
	</g>
</svg>
