<svg width="26" height="26" viewBox="0 0 26 26" fill="none" xmlns="http://www.w3.org/2000/svg">
<g filter="url(#filter0_i_2_76)">
<path d="M10.6031 2.70564C11.8479 1.30571 13.5395 1.52914 14.6217 2.70564L15.2815 3.47021C15.5106 3.71964 15.8413 3.84802 16.1777 3.81958L17.3509 3.47021C18.9507 3.12733 20.4043 4.32089 20.4043 6.17421V6.87296C20.4384 7.25402 20.7716 7.51239 21.1152 7.68058L22.1756 8.12339C23.7087 8.87252 24.0931 10.6503 22.9751 12.1412L22.6582 12.5605C22.3738 12.9448 22.4315 13.4501 22.7151 13.8361L23.0319 14.2805C24.1873 15.7024 23.5357 17.6524 21.9042 18.3349L20.9917 18.716C20.6481 18.8598 20.5124 19.106 20.449 19.4732L20.3856 20.666C20.163 22.304 18.7086 23.0433 17.5419 22.8784L16.1517 22.5071C15.8177 22.46 15.4026 22.5705 15.1799 22.9198L14.6786 23.6056C13.4347 25.008 11.7552 24.7748 10.9086 23.955L9.98318 22.8337C9.74105 22.5997 9.43555 22.399 9.06993 22.5371L7.6708 22.919C6.51624 23.0831 5.1553 22.1959 4.93836 21.0495L4.77586 19.3903C4.74368 19.2202 4.67149 19.0601 4.56525 18.9234C4.45901 18.7866 4.32177 18.6771 4.16486 18.6038L3.18336 18.2666C1.70705 17.5793 1.21305 15.9136 2.06049 14.5235L2.61299 13.7581C2.72166 13.5797 2.77689 13.3739 2.77214 13.1651C2.76739 12.9563 2.70285 12.7532 2.58618 12.58L2.17424 11.995C1.00586 10.3326 1.81349 8.47358 3.54411 7.91621L3.92599 7.79352C4.34686 7.65783 4.75474 7.30764 4.78886 6.86646L4.87499 5.79558C5.01311 4.05683 6.59911 3.05908 8.26799 3.56689L8.8083 3.73102C9.3283 3.93414 9.73618 3.76108 10.0206 3.45152L10.6047 2.70646L10.6031 2.70564Z" fill="url(#paint0_linear_2_76)"/>
<path d="M10.6031 2.70564C11.8479 1.30571 13.5395 1.52914 14.6217 2.70564L15.2815 3.47021C15.5106 3.71964 15.8413 3.84802 16.1777 3.81958L17.3509 3.47021C18.9507 3.12733 20.4043 4.32089 20.4043 6.17421V6.87296C20.4384 7.25402 20.7716 7.51239 21.1152 7.68058L22.1756 8.12339C23.7087 8.87252 24.0931 10.6503 22.9751 12.1412L22.6582 12.5605C22.3738 12.9448 22.4315 13.4501 22.7151 13.8361L23.0319 14.2805C24.1873 15.7024 23.5357 17.6524 21.9042 18.3349L20.9917 18.716C20.6481 18.8598 20.5124 19.106 20.449 19.4732L20.3856 20.666C20.163 22.304 18.7086 23.0433 17.5419 22.8784L16.1517 22.5071C15.8177 22.46 15.4026 22.5705 15.1799 22.9198L14.6786 23.6056C13.4347 25.008 11.7552 24.7748 10.9086 23.955L9.98318 22.8337C9.74105 22.5997 9.43555 22.399 9.06993 22.5371L7.6708 22.919C6.51624 23.0831 5.1553 22.1959 4.93836 21.0495L4.77586 19.3903C4.74368 19.2202 4.67149 19.0601 4.56525 18.9234C4.45901 18.7866 4.32177 18.6771 4.16486 18.6038L3.18336 18.2666C1.70705 17.5793 1.21305 15.9136 2.06049 14.5235L2.61299 13.7581C2.72166 13.5797 2.77689 13.3739 2.77214 13.1651C2.76739 12.9563 2.70285 12.7532 2.58618 12.58L2.17424 11.995C1.00586 10.3326 1.81349 8.47358 3.54411 7.91621L3.92599 7.79352C4.34686 7.65783 4.75474 7.30764 4.78886 6.86646L4.87499 5.79558C5.01311 4.05683 6.59911 3.05908 8.26799 3.56689L8.8083 3.73102C9.3283 3.93414 9.73618 3.76108 10.0206 3.45152L10.6047 2.70646L10.6031 2.70564Z" fill="url(#paint1_radial_2_76)"/>
<path d="M10.6031 2.70564C11.8479 1.30571 13.5395 1.52914 14.6217 2.70564L15.2815 3.47021C15.5106 3.71964 15.8413 3.84802 16.1777 3.81958L17.3509 3.47021C18.9507 3.12733 20.4043 4.32089 20.4043 6.17421V6.87296C20.4384 7.25402 20.7716 7.51239 21.1152 7.68058L22.1756 8.12339C23.7087 8.87252 24.0931 10.6503 22.9751 12.1412L22.6582 12.5605C22.3738 12.9448 22.4315 13.4501 22.7151 13.8361L23.0319 14.2805C24.1873 15.7024 23.5357 17.6524 21.9042 18.3349L20.9917 18.716C20.6481 18.8598 20.5124 19.106 20.449 19.4732L20.3856 20.666C20.163 22.304 18.7086 23.0433 17.5419 22.8784L16.1517 22.5071C15.8177 22.46 15.4026 22.5705 15.1799 22.9198L14.6786 23.6056C13.4347 25.008 11.7552 24.7748 10.9086 23.955L9.98318 22.8337C9.74105 22.5997 9.43555 22.399 9.06993 22.5371L7.6708 22.919C6.51624 23.0831 5.1553 22.1959 4.93836 21.0495L4.77586 19.3903C4.74368 19.2202 4.67149 19.0601 4.56525 18.9234C4.45901 18.7866 4.32177 18.6771 4.16486 18.6038L3.18336 18.2666C1.70705 17.5793 1.21305 15.9136 2.06049 14.5235L2.61299 13.7581C2.72166 13.5797 2.77689 13.3739 2.77214 13.1651C2.76739 12.9563 2.70285 12.7532 2.58618 12.58L2.17424 11.995C1.00586 10.3326 1.81349 8.47358 3.54411 7.91621L3.92599 7.79352C4.34686 7.65783 4.75474 7.30764 4.78886 6.86646L4.87499 5.79558C5.01311 4.05683 6.59911 3.05908 8.26799 3.56689L8.8083 3.73102C9.3283 3.93414 9.73618 3.76108 10.0206 3.45152L10.6047 2.70646L10.6031 2.70564Z" fill="url(#paint2_radial_2_76)"/>
<path d="M10.6031 2.70564C11.8479 1.30571 13.5395 1.52914 14.6217 2.70564L15.2815 3.47021C15.5106 3.71964 15.8413 3.84802 16.1777 3.81958L17.3509 3.47021C18.9507 3.12733 20.4043 4.32089 20.4043 6.17421V6.87296C20.4384 7.25402 20.7716 7.51239 21.1152 7.68058L22.1756 8.12339C23.7087 8.87252 24.0931 10.6503 22.9751 12.1412L22.6582 12.5605C22.3738 12.9448 22.4315 13.4501 22.7151 13.8361L23.0319 14.2805C24.1873 15.7024 23.5357 17.6524 21.9042 18.3349L20.9917 18.716C20.6481 18.8598 20.5124 19.106 20.449 19.4732L20.3856 20.666C20.163 22.304 18.7086 23.0433 17.5419 22.8784L16.1517 22.5071C15.8177 22.46 15.4026 22.5705 15.1799 22.9198L14.6786 23.6056C13.4347 25.008 11.7552 24.7748 10.9086 23.955L9.98318 22.8337C9.74105 22.5997 9.43555 22.399 9.06993 22.5371L7.6708 22.919C6.51624 23.0831 5.1553 22.1959 4.93836 21.0495L4.77586 19.3903C4.74368 19.2202 4.67149 19.0601 4.56525 18.9234C4.45901 18.7866 4.32177 18.6771 4.16486 18.6038L3.18336 18.2666C1.70705 17.5793 1.21305 15.9136 2.06049 14.5235L2.61299 13.7581C2.72166 13.5797 2.77689 13.3739 2.77214 13.1651C2.76739 12.9563 2.70285 12.7532 2.58618 12.58L2.17424 11.995C1.00586 10.3326 1.81349 8.47358 3.54411 7.91621L3.92599 7.79352C4.34686 7.65783 4.75474 7.30764 4.78886 6.86646L4.87499 5.79558C5.01311 4.05683 6.59911 3.05908 8.26799 3.56689L8.8083 3.73102C9.3283 3.93414 9.73618 3.76108 10.0206 3.45152L10.6047 2.70646L10.6031 2.70564Z" fill="url(#paint3_radial_2_76)"/>
<path d="M10.6031 2.70564C11.8479 1.30571 13.5395 1.52914 14.6217 2.70564L15.2815 3.47021C15.5106 3.71964 15.8413 3.84802 16.1777 3.81958L17.3509 3.47021C18.9507 3.12733 20.4043 4.32089 20.4043 6.17421V6.87296C20.4384 7.25402 20.7716 7.51239 21.1152 7.68058L22.1756 8.12339C23.7087 8.87252 24.0931 10.6503 22.9751 12.1412L22.6582 12.5605C22.3738 12.9448 22.4315 13.4501 22.7151 13.8361L23.0319 14.2805C24.1873 15.7024 23.5357 17.6524 21.9042 18.3349L20.9917 18.716C20.6481 18.8598 20.5124 19.106 20.449 19.4732L20.3856 20.666C20.163 22.304 18.7086 23.0433 17.5419 22.8784L16.1517 22.5071C15.8177 22.46 15.4026 22.5705 15.1799 22.9198L14.6786 23.6056C13.4347 25.008 11.7552 24.7748 10.9086 23.955L9.98318 22.8337C9.74105 22.5997 9.43555 22.399 9.06993 22.5371L7.6708 22.919C6.51624 23.0831 5.1553 22.1959 4.93836 21.0495L4.77586 19.3903C4.74368 19.2202 4.67149 19.0601 4.56525 18.9234C4.45901 18.7866 4.32177 18.6771 4.16486 18.6038L3.18336 18.2666C1.70705 17.5793 1.21305 15.9136 2.06049 14.5235L2.61299 13.7581C2.72166 13.5797 2.77689 13.3739 2.77214 13.1651C2.76739 12.9563 2.70285 12.7532 2.58618 12.58L2.17424 11.995C1.00586 10.3326 1.81349 8.47358 3.54411 7.91621L3.92599 7.79352C4.34686 7.65783 4.75474 7.30764 4.78886 6.86646L4.87499 5.79558C5.01311 4.05683 6.59911 3.05908 8.26799 3.56689L8.8083 3.73102C9.3283 3.93414 9.73618 3.76108 10.0206 3.45152L10.6047 2.70646L10.6031 2.70564Z" fill="url(#paint4_radial_2_76)"/>
<path d="M10.6031 2.70564C11.8479 1.30571 13.5395 1.52914 14.6217 2.70564L15.2815 3.47021C15.5106 3.71964 15.8413 3.84802 16.1777 3.81958L17.3509 3.47021C18.9507 3.12733 20.4043 4.32089 20.4043 6.17421V6.87296C20.4384 7.25402 20.7716 7.51239 21.1152 7.68058L22.1756 8.12339C23.7087 8.87252 24.0931 10.6503 22.9751 12.1412L22.6582 12.5605C22.3738 12.9448 22.4315 13.4501 22.7151 13.8361L23.0319 14.2805C24.1873 15.7024 23.5357 17.6524 21.9042 18.3349L20.9917 18.716C20.6481 18.8598 20.5124 19.106 20.449 19.4732L20.3856 20.666C20.163 22.304 18.7086 23.0433 17.5419 22.8784L16.1517 22.5071C15.8177 22.46 15.4026 22.5705 15.1799 22.9198L14.6786 23.6056C13.4347 25.008 11.7552 24.7748 10.9086 23.955L9.98318 22.8337C9.74105 22.5997 9.43555 22.399 9.06993 22.5371L7.6708 22.919C6.51624 23.0831 5.1553 22.1959 4.93836 21.0495L4.77586 19.3903C4.74368 19.2202 4.67149 19.0601 4.56525 18.9234C4.45901 18.7866 4.32177 18.6771 4.16486 18.6038L3.18336 18.2666C1.70705 17.5793 1.21305 15.9136 2.06049 14.5235L2.61299 13.7581C2.72166 13.5797 2.77689 13.3739 2.77214 13.1651C2.76739 12.9563 2.70285 12.7532 2.58618 12.58L2.17424 11.995C1.00586 10.3326 1.81349 8.47358 3.54411 7.91621L3.92599 7.79352C4.34686 7.65783 4.75474 7.30764 4.78886 6.86646L4.87499 5.79558C5.01311 4.05683 6.59911 3.05908 8.26799 3.56689L8.8083 3.73102C9.3283 3.93414 9.73618 3.76108 10.0206 3.45152L10.6047 2.70646L10.6031 2.70564Z" fill="url(#paint5_radial_2_76)"/>
<path d="M10.6031 2.70564C11.8479 1.30571 13.5395 1.52914 14.6217 2.70564L15.2815 3.47021C15.5106 3.71964 15.8413 3.84802 16.1777 3.81958L17.3509 3.47021C18.9507 3.12733 20.4043 4.32089 20.4043 6.17421V6.87296C20.4384 7.25402 20.7716 7.51239 21.1152 7.68058L22.1756 8.12339C23.7087 8.87252 24.0931 10.6503 22.9751 12.1412L22.6582 12.5605C22.3738 12.9448 22.4315 13.4501 22.7151 13.8361L23.0319 14.2805C24.1873 15.7024 23.5357 17.6524 21.9042 18.3349L20.9917 18.716C20.6481 18.8598 20.5124 19.106 20.449 19.4732L20.3856 20.666C20.163 22.304 18.7086 23.0433 17.5419 22.8784L16.1517 22.5071C15.8177 22.46 15.4026 22.5705 15.1799 22.9198L14.6786 23.6056C13.4347 25.008 11.7552 24.7748 10.9086 23.955L9.98318 22.8337C9.74105 22.5997 9.43555 22.399 9.06993 22.5371L7.6708 22.919C6.51624 23.0831 5.1553 22.1959 4.93836 21.0495L4.77586 19.3903C4.74368 19.2202 4.67149 19.0601 4.56525 18.9234C4.45901 18.7866 4.32177 18.6771 4.16486 18.6038L3.18336 18.2666C1.70705 17.5793 1.21305 15.9136 2.06049 14.5235L2.61299 13.7581C2.72166 13.5797 2.77689 13.3739 2.77214 13.1651C2.76739 12.9563 2.70285 12.7532 2.58618 12.58L2.17424 11.995C1.00586 10.3326 1.81349 8.47358 3.54411 7.91621L3.92599 7.79352C4.34686 7.65783 4.75474 7.30764 4.78886 6.86646L4.87499 5.79558C5.01311 4.05683 6.59911 3.05908 8.26799 3.56689L8.8083 3.73102C9.3283 3.93414 9.73618 3.76108 10.0206 3.45152L10.6047 2.70646L10.6031 2.70564Z" fill="url(#paint6_radial_2_76)"/>
<path d="M10.6031 2.70564C11.8479 1.30571 13.5395 1.52914 14.6217 2.70564L15.2815 3.47021C15.5106 3.71964 15.8413 3.84802 16.1777 3.81958L17.3509 3.47021C18.9507 3.12733 20.4043 4.32089 20.4043 6.17421V6.87296C20.4384 7.25402 20.7716 7.51239 21.1152 7.68058L22.1756 8.12339C23.7087 8.87252 24.0931 10.6503 22.9751 12.1412L22.6582 12.5605C22.3738 12.9448 22.4315 13.4501 22.7151 13.8361L23.0319 14.2805C24.1873 15.7024 23.5357 17.6524 21.9042 18.3349L20.9917 18.716C20.6481 18.8598 20.5124 19.106 20.449 19.4732L20.3856 20.666C20.163 22.304 18.7086 23.0433 17.5419 22.8784L16.1517 22.5071C15.8177 22.46 15.4026 22.5705 15.1799 22.9198L14.6786 23.6056C13.4347 25.008 11.7552 24.7748 10.9086 23.955L9.98318 22.8337C9.74105 22.5997 9.43555 22.399 9.06993 22.5371L7.6708 22.919C6.51624 23.0831 5.1553 22.1959 4.93836 21.0495L4.77586 19.3903C4.74368 19.2202 4.67149 19.0601 4.56525 18.9234C4.45901 18.7866 4.32177 18.6771 4.16486 18.6038L3.18336 18.2666C1.70705 17.5793 1.21305 15.9136 2.06049 14.5235L2.61299 13.7581C2.72166 13.5797 2.77689 13.3739 2.77214 13.1651C2.76739 12.9563 2.70285 12.7532 2.58618 12.58L2.17424 11.995C1.00586 10.3326 1.81349 8.47358 3.54411 7.91621L3.92599 7.79352C4.34686 7.65783 4.75474 7.30764 4.78886 6.86646L4.87499 5.79558C5.01311 4.05683 6.59911 3.05908 8.26799 3.56689L8.8083 3.73102C9.3283 3.93414 9.73618 3.76108 10.0206 3.45152L10.6047 2.70646L10.6031 2.70564Z" fill="url(#paint7_radial_2_76)"/>
<path d="M10.6031 2.70564C11.8479 1.30571 13.5395 1.52914 14.6217 2.70564L15.2815 3.47021C15.5106 3.71964 15.8413 3.84802 16.1777 3.81958L17.3509 3.47021C18.9507 3.12733 20.4043 4.32089 20.4043 6.17421V6.87296C20.4384 7.25402 20.7716 7.51239 21.1152 7.68058L22.1756 8.12339C23.7087 8.87252 24.0931 10.6503 22.9751 12.1412L22.6582 12.5605C22.3738 12.9448 22.4315 13.4501 22.7151 13.8361L23.0319 14.2805C24.1873 15.7024 23.5357 17.6524 21.9042 18.3349L20.9917 18.716C20.6481 18.8598 20.5124 19.106 20.449 19.4732L20.3856 20.666C20.163 22.304 18.7086 23.0433 17.5419 22.8784L16.1517 22.5071C15.8177 22.46 15.4026 22.5705 15.1799 22.9198L14.6786 23.6056C13.4347 25.008 11.7552 24.7748 10.9086 23.955L9.98318 22.8337C9.74105 22.5997 9.43555 22.399 9.06993 22.5371L7.6708 22.919C6.51624 23.0831 5.1553 22.1959 4.93836 21.0495L4.77586 19.3903C4.74368 19.2202 4.67149 19.0601 4.56525 18.9234C4.45901 18.7866 4.32177 18.6771 4.16486 18.6038L3.18336 18.2666C1.70705 17.5793 1.21305 15.9136 2.06049 14.5235L2.61299 13.7581C2.72166 13.5797 2.77689 13.3739 2.77214 13.1651C2.76739 12.9563 2.70285 12.7532 2.58618 12.58L2.17424 11.995C1.00586 10.3326 1.81349 8.47358 3.54411 7.91621L3.92599 7.79352C4.34686 7.65783 4.75474 7.30764 4.78886 6.86646L4.87499 5.79558C5.01311 4.05683 6.59911 3.05908 8.26799 3.56689L8.8083 3.73102C9.3283 3.93414 9.73618 3.76108 10.0206 3.45152L10.6047 2.70646L10.6031 2.70564Z" fill="url(#paint8_radial_2_76)"/>
<path d="M10.6031 2.70564C11.8479 1.30571 13.5395 1.52914 14.6217 2.70564L15.2815 3.47021C15.5106 3.71964 15.8413 3.84802 16.1777 3.81958L17.3509 3.47021C18.9507 3.12733 20.4043 4.32089 20.4043 6.17421V6.87296C20.4384 7.25402 20.7716 7.51239 21.1152 7.68058L22.1756 8.12339C23.7087 8.87252 24.0931 10.6503 22.9751 12.1412L22.6582 12.5605C22.3738 12.9448 22.4315 13.4501 22.7151 13.8361L23.0319 14.2805C24.1873 15.7024 23.5357 17.6524 21.9042 18.3349L20.9917 18.716C20.6481 18.8598 20.5124 19.106 20.449 19.4732L20.3856 20.666C20.163 22.304 18.7086 23.0433 17.5419 22.8784L16.1517 22.5071C15.8177 22.46 15.4026 22.5705 15.1799 22.9198L14.6786 23.6056C13.4347 25.008 11.7552 24.7748 10.9086 23.955L9.98318 22.8337C9.74105 22.5997 9.43555 22.399 9.06993 22.5371L7.6708 22.919C6.51624 23.0831 5.1553 22.1959 4.93836 21.0495L4.77586 19.3903C4.74368 19.2202 4.67149 19.0601 4.56525 18.9234C4.45901 18.7866 4.32177 18.6771 4.16486 18.6038L3.18336 18.2666C1.70705 17.5793 1.21305 15.9136 2.06049 14.5235L2.61299 13.7581C2.72166 13.5797 2.77689 13.3739 2.77214 13.1651C2.76739 12.9563 2.70285 12.7532 2.58618 12.58L2.17424 11.995C1.00586 10.3326 1.81349 8.47358 3.54411 7.91621L3.92599 7.79352C4.34686 7.65783 4.75474 7.30764 4.78886 6.86646L4.87499 5.79558C5.01311 4.05683 6.59911 3.05908 8.26799 3.56689L8.8083 3.73102C9.3283 3.93414 9.73618 3.76108 10.0206 3.45152L10.6047 2.70646L10.6031 2.70564Z" fill="url(#paint9_radial_2_76)"/>
</g>
<g filter="url(#filter1_i_2_76)">
<path d="M12.6214 21.8839C17.4428 21.8839 21.3501 17.9758 21.3501 13.1552C21.3501 8.33464 17.442 4.42651 12.6214 4.42651C7.80083 4.42651 3.8927 8.33464 3.8927 13.1552C3.8927 17.9758 7.80083 21.8839 12.6214 21.8839V21.8839Z" fill="url(#paint10_radial_2_76)"/>
</g>
<defs>
<filter id="filter0_i_2_76" x="1.62506" y="1.53767" width="22.1935" height="23.0765" filterUnits="userSpaceOnUse" color-interpolation-filters="sRGB">
<feFlood flood-opacity="0" result="BackgroundImageFix"/>
<feBlend mode="normal" in="SourceGraphic" in2="BackgroundImageFix" result="shape"/>
<feColorMatrix in="SourceAlpha" type="matrix" values="0 0 0 0 0 0 0 0 0 0 0 0 0 0 0 0 0 0 127 0" result="hardAlpha"/>
<feOffset dx="0.2" dy="-0.2"/>
<feGaussianBlur stdDeviation="0.375"/>
<feComposite in2="hardAlpha" operator="arithmetic" k2="-1" k3="1"/>
<feColorMatrix type="matrix" values="0 0 0 0 0.839216 0 0 0 0 0.45098 0 0 0 0 0.211765 0 0 0 1 0"/>
<feBlend mode="normal" in2="shape" result="effect1_innerShadow_2_76"/>
</filter>
<filter id="filter1_i_2_76" x="3.5927" y="4.42651" width="17.7574" height="17.7574" filterUnits="userSpaceOnUse" color-interpolation-filters="sRGB">
<feFlood flood-opacity="0" result="BackgroundImageFix"/>
<feBlend mode="normal" in="SourceGraphic" in2="BackgroundImageFix" result="shape"/>
<feColorMatrix in="SourceAlpha" type="matrix" values="0 0 0 0 0 0 0 0 0 0 0 0 0 0 0 0 0 0 127 0" result="hardAlpha"/>
<feOffset dx="-0.3" dy="0.3"/>
<feGaussianBlur stdDeviation="0.15"/>
<feComposite in2="hardAlpha" operator="arithmetic" k2="-1" k3="1"/>
<feColorMatrix type="matrix" values="0 0 0 0 0.921569 0 0 0 0 0.47451 0 0 0 0 0.133333 0 0 0 1 0"/>
<feBlend mode="normal" in2="shape" result="effect1_innerShadow_2_76"/>
</filter>
<linearGradient id="paint0_linear_2_76" x1="19.4009" y1="5.57946" x2="6.92899" y2="21.4915" gradientUnits="userSpaceOnUse">
<stop stop-color="#FC8B23"/>
<stop offset="1" stop-color="#E67639"/>
</linearGradient>
<radialGradient id="paint1_radial_2_76" cx="0" cy="0" r="1" gradientUnits="userSpaceOnUse" gradientTransform="translate(14.7209 2.79276) rotate(138.155) scale(3.07015 2.70882)">
<stop offset="0.3" stop-color="#FFA13A"/>
<stop offset="1" stop-color="#FFA13A" stop-opacity="0"/>
</radialGradient>
<radialGradient id="paint2_radial_2_76" cx="0" cy="0" r="1" gradientUnits="userSpaceOnUse" gradientTransform="translate(6.73399 1.82327) rotate(67.8105) scale(4.88081 4.30639)">
<stop offset="0.3" stop-color="#FF942A"/>
<stop offset="1" stop-color="#FF942A" stop-opacity="0"/>
</radialGradient>
<radialGradient id="paint3_radial_2_76" cx="0" cy="0" r="1" gradientUnits="userSpaceOnUse" gradientTransform="translate(19.8412 6.37814) rotate(-164.745) scale(1.94605 2.69455)">
<stop offset="0.3" stop-color="#FFA13D"/>
<stop offset="1" stop-color="#FFA13D" stop-opacity="0"/>
</radialGradient>
<radialGradient id="paint4_radial_2_76" cx="0" cy="0" r="1" gradientUnits="userSpaceOnUse" gradientTransform="translate(23.7672 9.21052) rotate(154.195) scale(3.45042 2.5484)">
<stop offset="0.3" stop-color="#FFA13D"/>
<stop offset="1" stop-color="#FFA13D" stop-opacity="0"/>
</radialGradient>
<radialGradient id="paint5_radial_2_76" cx="0" cy="0" r="1" gradientUnits="userSpaceOnUse" gradientTransform="translate(24.5188 15.0475) rotate(-173.379) scale(3.84889 2.16899)">
<stop offset="0.3" stop-color="#FFA13D"/>
<stop offset="1" stop-color="#FFA13D" stop-opacity="0"/>
</radialGradient>
<radialGradient id="paint6_radial_2_76" cx="0" cy="0" r="1" gradientUnits="userSpaceOnUse" gradientTransform="translate(21.0704 19.5195) rotate(-43.964) scale(3.49126 3.36342)">
<stop stop-color="#E0762A"/>
<stop offset="1" stop-color="#E0762A" stop-opacity="0"/>
</radialGradient>
<radialGradient id="paint7_radial_2_76" cx="0" cy="0" r="1" gradientUnits="userSpaceOnUse" gradientTransform="translate(4.89043 18.6997) rotate(-127.747) scale(2.67657 2.57855)">
<stop stop-color="#E0762A"/>
<stop offset="1" stop-color="#E0762A" stop-opacity="0"/>
</radialGradient>
<radialGradient id="paint8_radial_2_76" cx="0" cy="0" r="1" gradientUnits="userSpaceOnUse" gradientTransform="translate(1.23743 9.65414) rotate(25.2776) scale(2.71804 3.28514)">
<stop stop-color="#F0851D"/>
<stop offset="1" stop-color="#F0851D" stop-opacity="0"/>
</radialGradient>
<radialGradient id="paint9_radial_2_76" cx="0" cy="0" r="1" gradientUnits="userSpaceOnUse" gradientTransform="translate(17.4623 23.3954) rotate(-142.487) scale(3.16895 2.98963)">
<stop offset="0.337" stop-color="#E3745B"/>
<stop offset="1" stop-color="#E3745B" stop-opacity="0"/>
</radialGradient>
<radialGradient id="paint10_radial_2_76" cx="0" cy="0" r="1" gradientUnits="userSpaceOnUse" gradientTransform="translate(17.5759 8.09832) rotate(117.739) scale(15.5755 19.2343)">
<stop offset="0.172" stop-color="#FFD13D"/>
<stop offset="1" stop-color="#D89A29"/>
</radialGradient>
</defs>
</svg>
